<svg clip-rule="evenodd" fill-rule="evenodd" stroke-linejoin="round" stroke-miterlimit="2" viewBox="0 0 127 142" xmlns="http://www.w3.org/2000/svg">
	<g fill="#da2529" fill-rule="nonzero">
		<path d="m57.224 15.2h.004c-.01.014-.02.024-.034.039-.015.024-.034.048-.058.073-.02.024-.044.044-.069.068v-.014c.005-.015.01-.035.015-.063.004-.011.01-.021.01-.035 0-.015.004-.034.009-.058h.005c.04-.006.078-.006.118-.01" />
		<path d="m76.563 118.289h-.337l-.005-.005c.117 0 .23.005.342.005" />
		<path d="m50.71 118.249-.039.04h-1.904l.044-.045c.483.005 1.108.011 1.899.005" />
		<path d="m56.838 118.289h-8.071l.044-.045c.483.005 1.108.01 1.899.005 1.425.005 3.398.005 6.108.005.005.01.014.024.02.035" />
		<path d="m76.563 118.289h-6.518c.005-.011.014-.025.02-.035 2.661 0 4.662.01 6.156.03.117 0 .23.005.342.005" />
		<path d="m57.067 15.376c.025-.02.044-.045.069-.064-.02.024-.044.044-.069.068z" />
		<path d="m70.045 118.289c-1.235 2.099-1.665 9.457-1.792 16.204-1.587.142-3.188.21-4.81.21-1.621 0-3.226-.068-4.814-.21-.127-6.747-.557-14.105-1.791-16.204h-8.071l.044-.045c6.245-5.692 11.542-11.581 14.559-17.938.024-.043.044-.082.064-.127h.014c.024.049.05.102.074.152 3.027 6.361 8.339 12.255 14.593 17.958zm3.935-102.514c.229 1.041.371 2.276.371 3.75 0 1.178-.21 2.324-.605 3.394 26.175 4.854 46.061 27.859 46.061 55.42 0 10.933-3.13 21.147-8.545 29.799-8.026-4.365-12.767.136-16.614 2.983-.01.005-.015.01-.025.02-.776-1.554-3.999-3.482-9.433-9.414-2.314-7.387-4.711-14.755-6.85-22.196-4.565-13.104-4.155-27.268-8.667-40.397-2.607-9.609-6.23-1.67-5.283 3.715.933 7.764.743 16.059 1.29 23.822 7.386-2.339 7.758 6.425 8.13 11.289.278 3.148.194 5.707 1.811 8.344 1.875 4.13 3.735 9.906 1.816 14.183.108-5.39-1.245-10.311-4.185-14.804-2.28-3.462-.278-8.051-1.342-11.937-.928-3.404-3.73-8.706-6.537-4.243-1.461 3.271-1.231 7.089-.567 10.483 1.064 4.101-.62 9.315-1.358 14.134-.737-4.819-2.421-10.033-1.356-14.134.663-3.394.893-7.212-.567-10.483-2.808-4.463-5.61.839-6.538 4.243-1.064 3.886.937 8.475-1.343 11.937-2.939 4.493-4.291 9.414-4.184 14.804-1.919-4.277-.058-10.053 1.817-14.183 1.616-2.637 1.533-5.196 1.811-8.344.371-4.864.742-13.628 8.128-11.289.548-7.763.357-16.058 1.295-23.822.943-5.385-2.681-13.324-5.288-3.715-4.511 13.129-4.101 27.293-8.666 40.397-2.139 7.441-4.536 14.809-6.85 22.196-5.439 5.937-8.667 7.86-9.438 9.419-.01-.011-.024-.015-.034-.025-3.848-2.847-8.588-7.348-16.615-2.983-5.415-8.652-8.545-18.866-8.545-29.799 0-27.249 19.437-50.044 45.173-55.249-.635-1.362-.992-2.827-.992-4.312 0-.908.088-1.825.264-2.758-29.304 5.596-51.52 31.41-51.52 62.319 0 12.5 3.633 24.169 9.903 34.002 10.468 16.421 28.274 27.723 48.76 29.256 1.578.123 3.174.181 4.78.181 1.607 0 3.199-.058 4.771-.175 20.491-1.533 38.298-12.841 48.766-29.262 6.269-9.833 9.902-21.502 9.902-34.002 0-31.393-22.919-57.534-52.902-62.564" />
		<path d="m71.925 19.526c-.191 4.164-3.597 7.672-7.603 8.256-2.992.511-6.032-.9-8.056-3.072-.447-.468-.843-.978-1.196-1.518 0 0 0-.005-.004-.009-.644-1.011-1.124-2.145-1.295-3.335-.266-1.844.118-3.732.704-5.479.53-1.387 1.311-2.885.537-4.266 1.19.771 2.001 2.076 2.139 3.486.068.522.04 1.098-.035 1.547-.013.057-.019.118-.034.166-.006.029-.01.049-.015.063v.015c.047-.044.096-.09.127-.142.163-.188.296-.398.41-.615v-.005c.098-.187.174-.382.231-.582.139-.494.135-1.017.065-1.525-1.131-8.202 2.947-11.281 5.866-12.511-3.15 5.615 1.416 11.225 1.416 11.225-.084-4.482 2.544-5.835 2.544-5.835-.964 7.102 4.485 7.893 4.199 14.136" />
		<path d="m57.224 15.2h.004c-.01.014-.02.024-.034.039.01-.015.019-.025.03-.039" />
		<path d="m56.838 118.289h-8.071l.044-.045c.483.005 1.108.01 1.899.005 1.425.005 3.398.005 6.108.005.005.01.014.024.02.035" />
		<path d="m76.563 118.289h-6.518c.005-.011.014-.025.02-.035 2.661 0 4.662.01 6.156.03.117 0 .23.005.342.005" />
	</g>
</svg>