<svg clip-rule="evenodd" fill-rule="evenodd" stroke-linecap="round" stroke-linejoin="round" stroke-miterlimit="1.5" viewBox="0 0 104 44" xmlns="http://www.w3.org/2000/svg">
	<g fill="none" stroke="#000" stroke-width="3.4">
		<path d="m31.157 32.281h43.961" />
		<circle cx="21.025" cy="32.06" r="9.81" />
		<circle cx="21.025" cy="32.06" r="3.712" />
		<circle cx="85.503" cy="32.06" r="9.81" />
		<circle cx="85.503" cy="32.06" r="3.712" />
		
		<path d="m101.76 20.901h-4.928l-3.959-6.679" />
		<path d="m44.613 16.702h2.403" />
		<path d="m35.415 11.199h40.303" />
		<path d="m41.497 24.764-10.6-21.123" />
		<path d="m95.703 32.266h3.094c.898 0 1.759-.357 2.394-.991.635-.635.991-1.496.991-2.394 0-3.554 0-8.632 0-8.632-4.952-5.978-14.311-8.923-26.441-9.05-15.274-13.322-41.456-11.684-63.129-.963 0 0-2.569-.008-5.204-.016-3.107-.009-5.636 2.499-5.651 5.606-.025 4.957-.057 11.395-.057 11.395l4.854 5.045h3.693" stroke-linecap="butt" />
	</g>
	<path d="m59.017 27.633c-.156.265-.21 1.193-.226 2.044-.2.018-.402.027-.607.027-.204 0-.407-.009-.607-.027-.016-.851-.07-1.779-.226-2.044h-1.018l.006-.005c.787-.718 1.455-1.461 1.836-2.263.003-.006.006-.01.008-.016h.002c.003.006.006.013.009.019.382.802 1.052 1.546 1.841 2.265zm.496-12.93c.029.131.047.287.047.473 0 .148-.026.293-.076.428 3.301.612 5.81 3.514 5.81 6.99 0 1.379-.395 2.668-1.078 3.759-1.013-.551-1.61.017-2.096.376-.001.001-.002.001-.003.003-.098-.196-.504-.44-1.19-1.188-.292-.932-.594-1.861-.864-2.8-.576-1.652-.524-3.439-1.093-5.095-.329-1.212-.786-.211-.666.469.117.979.093 2.025.162 3.004.932-.295.979.811 1.026 1.424.035.397.024.72.228 1.053.237.521.471 1.249.229 1.789.014-.68-.157-1.301-.527-1.868-.288-.436-.036-1.015-.17-1.505-.117-.43-.47-1.098-.824-.535-.185.412-.156.894-.072 1.322.134.517-.078 1.175-.171 1.783-.093-.608-.305-1.266-.171-1.783.083-.428.112-.91-.072-1.322-.354-.563-.707.105-.824.535-.135.49.118 1.069-.17 1.505-.37.567-.541 1.188-.528 1.868-.242-.54-.007-1.268.23-1.789.203-.333.193-.656.228-1.053.047-.613.094-1.719 1.025-1.424.069-.979.045-2.025.164-3.004.119-.68-.338-1.681-.667-.469-.569 1.656-.518 3.443-1.093 5.095-.27.939-.573 1.868-.864 2.8-.687.749-1.094.992-1.191 1.188-.001-.001-.003-.002-.004-.003-.486-.359-1.083-.927-2.096-.376-.683-1.091-1.078-2.38-1.078-3.759 0-3.437 2.452-6.312 5.698-6.969-.08-.171-.125-.356-.125-.544 0-.114.011-.23.033-.347-3.696.705-6.498 3.961-6.498 7.86 0 1.577.458 3.049 1.249 4.289 1.32 2.071 3.566 3.497 6.15 3.69.199.016.401.023.603.023.203 0 .404-.007.602-.022 2.585-.194 4.831-1.62 6.151-3.691.791-1.24 1.249-2.712 1.249-4.289 0-3.96-2.891-7.257-6.673-7.891" fill="#da2529" fill-rule="nonzero" />
	<path d="m59.254 15.176c-.024.525-.454.967-.959 1.041-.377.065-.761-.113-1.016-.387-.056-.059-.106-.124-.151-.192 0 0 0 0 0-.001-.082-.127-.142-.271-.164-.421-.033-.232.015-.47.089-.691.067-.175.165-.364.068-.538.15.097.252.262.27.44.008.066.005.138-.005.195-.001.007-.002.015-.004.021-.001.004-.001.006-.002.008v.002c.006-.006.012-.012.016-.018.021-.024.037-.05.052-.078.012-.024.022-.049.029-.074.017-.062.017-.128.008-.192-.143-1.035.372-1.423.74-1.578-.397.708.179 1.416.179 1.416-.011-.566.32-.736.32-.736-.121.896.566.995.53 1.783" fill="#da2529" fill-rule="nonzero" />
</svg>