<svg clip-rule="evenodd" fill-rule="evenodd" stroke-linejoin="round" stroke-miterlimit="2" viewBox="0 0 821 460" xmlns="http://www.w3.org/2000/svg">
	<g fill="#da2529" fill-rule="nonzero">
		<path d="m416.609 33.756h.009c-.021.031-.043.053-.075.084-.031.056-.075.109-.128.166-.047.053-.1.096-.153.15v-.032c.01-.034.022-.078.031-.14.013-.022.022-.044.022-.078 0-.032.013-.075.022-.129h.013c.084-.012.172-.012.259-.021" />
		<path d="m459.558 262.7h-.747l-.012-.009c.259 0 .509.009.759.009" />
		<path d="m402.144 262.613-.088.088h-4.228l.097-.097c1.075.009 2.463.018 4.219.009" />
		<path d="m415.752 262.7h-17.922l.097-.097c1.071.009 2.459.022 4.218.009 3.166.013 7.547.013 13.563.013.012.019.034.053.044.075" />
		<path d="m459.558 262.7h-14.475c.013-.022.031-.056.044-.075 5.909 0 10.356.019 13.672.066.259 0 .509.009.759.009" />
		<path d="m416.261 34.146c.057-.044.097-.1.153-.14-.043.053-.096.096-.153.15z" />
		<path d="m445.082 262.7c-2.74 4.662-3.697 21.003-3.978 35.987-3.525.316-7.081.469-10.681.469s-7.166-.153-10.691-.469c-.281-14.984-1.237-31.325-3.981-35.987h-17.922l.097-.097c13.869-12.644 25.634-25.722 32.334-39.837.053-.1.097-.185.141-.285h.034c.053.11.107.228.163.338 6.722 14.128 18.519 27.215 32.409 39.881zm8.741-227.666c.509 2.31.825 5.053.825 8.328 0 2.613-.466 5.163-1.347 7.538 58.131 10.778 102.297 61.869 102.297 123.081 0 24.275-6.95 46.963-18.978 66.175-17.825-9.694-28.353.303-36.897 6.625-.022.013-.031.022-.056.044-1.722-3.45-8.882-7.731-20.947-20.906-5.141-16.407-10.466-32.769-15.213-49.294-10.14-29.1-9.231-60.556-19.247-89.716-5.79-21.34-13.837-3.706-11.734 8.253 2.072 17.238 1.65 35.663 2.862 52.904 16.407-5.194 17.232 14.268 18.054 25.068.621 6.994.434 12.678 4.025 18.532 4.162 9.175 8.293 22 4.031 31.5.24-11.972-2.763-22.9-9.291-32.879-5.062-7.687-.619-17.881-2.981-26.509-2.059-7.559-8.284-19.334-14.519-9.425-3.244 7.266-2.734 15.747-1.259 23.281 2.365 9.11-1.378 20.688-3.013 31.391-1.637-10.703-5.381-22.281-3.015-31.391 1.475-7.534 1.984-16.015-1.26-23.281-6.234-9.909-12.459 1.866-14.518 9.425-2.363 8.628 2.081 18.822-2.982 26.509-6.528 9.979-9.531 20.907-9.29 32.879-4.263-9.5-.132-22.325 4.031-31.5 3.591-5.854 3.406-11.538 4.025-18.532.822-10.8 1.647-30.262 18.053-25.068 1.213-17.241.791-35.666 2.872-52.904 2.094-11.959-5.953-29.593-11.741-8.253-10.022 29.16-9.109 60.616-19.25 89.716-4.747 16.525-10.072 32.887-15.212 49.294-12.078 13.187-19.247 17.456-20.96 20.915-.021-.018-.053-.031-.075-.053-8.543-6.322-19.075-16.319-36.9-6.625-12.025-19.212-18.975-41.9-18.975-66.175 0-60.515 43.166-111.144 100.322-122.703-1.412-3.025-2.203-6.278-2.203-9.575 0-2.016.197-4.056.588-6.125-65.082 12.425-114.419 69.753-114.419 138.403 0 27.76 8.069 53.672 21.991 75.51 23.246 36.465 62.793 61.568 108.29 64.975 3.503.268 7.047.4 10.616.4s7.103-.132 10.594-.391c45.509-3.403 85.056-28.519 108.3-64.984 13.925-21.838 21.993-47.75 21.993-75.51 0-69.722-50.9-127.778-117.487-138.947" />
		<path d="m449.257 43.362c-.425 9.247-7.988 17.041-16.881 18.335-6.647 1.137-13.397-1.997-17.891-6.819-.994-1.041-1.875-2.172-2.659-3.375 0 0 0-.009-.01-.019-1.428-2.243-2.493-4.765-2.875-7.406-.587-4.097.263-8.287 1.563-12.166 1.178-3.081 2.912-6.409 1.19-9.478 2.647 1.716 4.447 4.613 4.75 7.744.154 1.163.094 2.441-.075 3.434-.028.129-.04.263-.075.372-.012.063-.021.107-.034.138v.034c.106-.1.216-.2.284-.315.36-.416.657-.885.91-1.366v-.009c.219-.416.384-.85.512-1.297.31-1.094.3-2.257.144-3.382-2.509-18.218 6.544-25.056 13.028-27.787-6.994 12.469 3.144 24.928 3.144 24.928-.184-9.953 5.65-12.956 5.65-12.956-2.138 15.769 9.962 17.525 9.325 31.39" />
		<path d="m416.609 33.756h.009c-.021.031-.043.053-.075.084.022-.031.044-.053.066-.084" />
		<path d="m415.752 262.7h-17.922l.097-.097c1.071.009 2.459.022 4.218.009 3.166.013 7.547.013 13.563.013.012.019.034.053.044.075" />
		<path d="m459.558 262.7h-14.475c.013-.022.031-.056.044-.075 5.909 0 10.356.019 13.672.066.259 0 .509.009.759.009" />
		<path d="m71.606 389.813c0 4.3-1.503 7.704-4.506 10.213-3.003 2.506-7.153 3.759-12.447 3.759h-14.053v-28.409h13.9c5.394 0 9.597 1.203 12.6 3.609 3.003 2.407 4.506 5.916 4.506 10.519zm17.563-29.328c-3.869-3.206-8.553-5.65-14.05-7.331s-11.606-2.519-18.328-2.519h-56.791l10.972 18.191v88.722h29.628v-30.547h14.663c6.618 0 12.756-.813 18.406-2.444 5.65-1.628 10.509-4.072 14.584-7.331 4.072-3.259 7.253-7.278 9.547-12.066 2.291-4.784 3.434-10.334 3.434-16.647v-.306c0-5.903-1.043-11.2-3.131-15.884-2.084-4.681-5.065-8.628-8.934-11.838" />
		<path d="m195.979 389.276c0 3.872-1.375 6.95-4.125 9.241-2.75 2.29-6.668 3.437-11.759 3.437h-19.55v-25.659h19.397c4.987 0 8.909 1.044 11.759 3.131 2.85 2.088 4.278 5.269 4.278 9.544zm23.825 18.631c3.972-5.393 5.957-12.215 5.957-20.462v-.306c0-10.488-3.157-18.788-9.469-24.897-3.566-3.666-8.197-6.516-13.897-8.553-5.703-2.038-12.678-3.053-20.925-3.053h-61.528l10.972 18.19v88.722h29.631v-32.378h12.981l21.538 32.378h34.209l-25.503-37.269c6.719-2.847 12.066-6.972 16.034-12.372" />
		<path d="m430.646 389.582-21.994-38.947h-33.753l40.628 66.897v40.018h29.781v-40.478l40.628-66.437h-33.143z" />
		<path d="m664.861 410.812c0 7.535-1.769 13.085-5.307 16.647-3.537 3.566-8.281 5.347-14.243 5.347-5.963 0-10.713-1.856-14.247-5.575-3.538-3.715-5.303-9.444-5.303-17.184v-59.413h-41.213l10.972 18.191v41.834c0 8.35 1.144 15.603 3.438 21.766 2.29 6.159 5.571 11.25 9.85 15.272 4.278 4.022 9.468 7 15.578 8.934 6.109 1.935 12.984 2.903 20.618 2.903 7.638 0 14.535-.968 20.697-2.903 6.16-1.934 11.4-4.912 15.732-8.934 4.325-4.022 7.687-9.163 10.081-15.428 2.387-6.26 3.587-13.719 3.587-22.372v-59.263h-30.24z" />
		<path d="m790.456 389.813c0 4.3-1.503 7.704-4.507 10.213-3.003 2.506-7.153 3.759-12.446 3.759h-14.05v-28.409h13.896c5.397 0 9.597 1.203 12.6 3.609 3.004 2.407 4.507 5.916 4.507 10.519zm26.5-17.49c-2.088-4.681-5.066-8.628-8.935-11.838-3.872-3.206-8.553-5.65-14.053-7.331-5.497-1.681-11.606-2.519-18.328-2.519h-56.791l10.972 18.191v88.722h29.632v-30.547h14.662c6.616 0 12.753-.813 18.403-2.444 5.65-1.628 10.513-4.072 14.585-7.331 4.071-3.259 7.256-7.278 9.546-12.066 2.291-4.784 3.438-10.334 3.438-16.647v-.306c0-5.903-1.047-11.2-3.131-15.884" />
		<path d="m294.846 349.87-45.516 107.678h31.159l5.11-12.771 11.334-29.232 4.444-11.453 7.519-18.937 7.425 18.937.003.006 4.393 11.447 11.225 29.232 5.21 12.771h31.769l-45.516-107.678z" />
	</g>
</svg>