<svg clip-rule="evenodd" fill-rule="evenodd" stroke-linejoin="round" stroke-miterlimit="2" viewBox="0 0 5740 1463" xmlns="http://www.w3.org/2000/svg">
	<g fill="#da2529" fill-rule="nonzero">
		<path d="m1909.66 714.953c0 21.992-7.696 39.401-23.06 52.24-15.365 12.838-36.602 19.245-63.685 19.245h-71.888v-145.352h71.107c27.604 0 49.101 6.159 64.466 18.463 15.364 12.305 23.06 30.261 23.06 53.829zm89.856-150.052c-19.791-16.406-43.75-28.906-71.888-37.513-28.125-8.594-59.388-12.904-93.776-12.904h-290.56l56.133 93.086v453.933h151.602v-156.289h75.026c33.854 0 65.247-4.154 94.153-12.5 28.92-8.321 53.789-20.821 74.636-37.513 20.82-16.667 37.109-37.24 48.828-61.732 11.732-24.479 17.591-52.865 17.591-85.183v-1.562c0-30.195-5.351-57.292-16.016-81.263-10.69-23.958-25.924-44.154-45.729-60.56" />
		<path d="m2546 712.206c0 19.804-7.031 35.547-21.107 47.278-14.062 11.719-34.127 17.565-60.169 17.565h-100.026v-131.276h99.245c25.521 0 45.586 5.365 60.169 16.029 14.583 10.677 21.888 26.953 21.888 48.841zm121.901 95.325c20.313-27.604 30.482-62.5 30.482-104.713v-1.563c0-53.646-16.159-96.12-48.464-127.37-18.229-18.75-41.927-33.333-71.093-43.75-29.193-10.429-64.87-15.651-107.071-15.651h-314.778l56.132 93.086v453.933h151.589v-165.651h66.432l110.183 165.651h175.039l-130.495-190.664c34.375-14.584 61.732-35.691 82.044-63.308" />
		<path d="m3746.65 713.758-112.526-199.271h-172.696l207.865 342.279v204.739h152.383v-207.083l207.864-339.935h-169.583z" />
		<path d="m4944.99 822.388c0 38.555-9.049 66.953-27.148 85.169-18.099 18.242-42.383 27.357-72.878 27.357s-54.805-9.492-72.891-28.529c-18.099-19.01-27.135-48.307-27.135-87.903v-303.985h-210.859l56.132 93.073v214.037c0 42.721 5.86 79.831 17.591 111.354 11.719 31.523 28.516 57.565 50.404 78.138 21.875 20.586 48.438 35.833 79.701 45.729 31.25 9.883 66.419 14.844 105.494 14.844 39.063 0 74.349-4.961 105.886-14.844 31.51-9.896 58.346-25.143 80.495-45.729 22.122-20.573 39.323-46.875 51.575-78.919 12.227-32.032 18.36-70.196 18.36-114.479v-303.204h-154.727z" />
		<path d="m5587.59 714.953c0 21.992-7.696 39.401-23.06 52.24-15.365 12.838-36.602 19.245-63.685 19.245h-71.901v-145.352h71.107c27.617 0 49.114 6.159 64.479 18.463 15.364 12.305 23.06 30.261 23.06 53.829zm135.573-89.492c-10.678-23.958-25.912-44.154-45.717-60.56-19.804-16.406-43.763-28.906-71.888-37.513-28.125-8.594-59.388-12.904-93.776-12.904h-290.56l56.133 93.086v453.933h151.589v-156.289h75.026c33.867 0 65.26-4.154 94.167-12.5 28.906-8.321 53.776-20.821 74.622-37.513 20.833-16.667 37.122-37.24 48.841-61.732 11.719-24.479 17.591-52.865 17.591-85.183v-1.562c0-30.195-5.364-57.292-16.028-81.263" />
		<path d="m3051.84 510.587-232.877 550.925h159.414l26.145-65.352 57.995-149.544 22.735-58.607 38.476-96.914 37.982 96.914.013.039 22.487 58.568 57.422 149.544 26.666 65.352h162.527l-232.852-550.925z" />
		<path d="m590.173 156.767h.052c-.104.143-.208.247-.351.404-.157.247-.352.494-.612.742-.196.26-.443.469-.703.716v-.156c.052-.144.104-.352.156-.651.052-.105.104-.209.104-.352 0-.156.039-.352.091-.612h.052c.404-.052.808-.052 1.211-.091" />
		<path d="m789.63 1219.98h-3.476l-.052-.052c1.211 0 2.369.052 3.528.052" />
		<path d="m523.003 1219.57-.404.404h-19.648l.468-.456c4.974.052 11.42.104 19.584.052" />
		<path d="m586.193 1219.98h-83.242l.468-.455c4.974.052 11.42.104 19.584.052 14.7.052 35.039.052 62.994.052.039.091.144.247.196.351" />
		<path d="m789.63 1219.98h-67.226c.052-.104.156-.26.208-.351 27.435 0 48.086.091 63.49.299 1.211 0 2.369.052 3.528.052" />
		<path d="m588.557 158.579c.261-.208.456-.455.703-.664-.195.261-.442.456-.703.703z" />
		<path d="m722.409 1219.98c-12.748 21.654-17.175 97.527-18.477 167.136-16.367 1.445-32.89 2.161-49.609 2.161s-33.281-.716-49.649-2.161c-1.315-69.609-5.742-145.482-18.476-167.136h-83.242l.455-.455c64.402-58.711 119.037-119.44 150.157-185 .247-.456.455-.873.664-1.315h.143c.247.494.508 1.054.755 1.549 31.224 65.625 86.003 126.393 150.521 185.221zm40.586-1057.28c2.37 10.729 3.828 23.476 3.828 38.672 0 12.148-2.162 23.984-6.25 35 269.961 50.065 475.065 287.33 475.065 571.588 0 112.761-32.279 218.086-88.138 307.331-82.773-45.026-131.667 1.406-171.354 30.755-.104.052-.143.104-.248.209-8.007-16.016-41.237-35.899-97.291-97.084-23.867-76.198-48.594-152.187-70.651-228.919-47.071-135.156-42.852-281.237-89.375-416.641-26.888-99.114-64.258-17.226-54.492 38.321 9.622 80.065 7.656 165.625 13.294 245.677 76.198-24.115 80.026 66.276 83.841 116.432 2.878 32.474 2.018 58.854 18.685 86.055 19.336 42.604 38.528 102.174 18.737 146.276 1.107-55.586-12.839-106.354-43.151-152.67-23.516-35.703-2.878-83.033-13.854-123.112-9.571-35.117-38.477-89.791-67.422-43.776-15.052 33.737-12.696 73.125-5.847 108.125 10.977 42.292-6.393 96.068-13.997 145.769-7.604-49.701-24.974-103.477-13.997-145.769 6.849-35 9.218-74.388-5.847-108.125-28.945-46.015-57.851 8.659-67.422 43.776-10.976 40.079 9.662 87.409-13.841 123.112-30.312 46.316-44.271 97.084-43.164 152.67-19.792-44.102-.599-103.672 18.737-146.276 16.667-27.201 15.807-53.581 18.685-86.055 3.828-50.156 7.643-140.547 83.841-116.432 5.638-80.052 3.672-165.612 13.347-245.677 9.713-55.547-27.657-137.435-54.545-38.321-46.523 135.404-42.291 281.485-89.375 416.641-22.057 76.732-46.784 152.721-70.651 228.919-56.094 61.224-89.388 81.068-97.344 97.136-.091-.105-.247-.157-.351-.261-39.675-29.349-88.568-75.781-171.354-30.755-55.847-89.245-88.125-194.57-88.125-307.331 0-281.041 200.468-516.146 465.885-569.817-6.536-14.05-10.221-29.167-10.221-44.467 0-9.375.911-18.841 2.721-28.45-302.226 57.708-531.354 323.932-531.354 642.734 0 128.92 37.461 249.271 102.122 350.677 107.969 169.349 291.615 285.925 502.904 301.732 16.263 1.263 32.734 1.862 49.297 1.862 16.562 0 32.982-.599 49.206-1.81 211.341-15.807 394.987-132.435 502.942-301.784 64.662-101.406 102.136-221.757 102.136-350.677 0-323.789-236.38-593.385-545.612-645.26" />
		<path d="m741.794 201.38c-1.966 42.943-37.096 79.141-78.398 85.156-30.873 5.274-62.227-9.283-83.086-31.679-4.609-4.831-8.698-10.078-12.344-15.664 0 0 0-.052-.052-.104-6.628-10.404-11.575-22.123-13.346-34.388-2.735-19.024 1.211-38.49 7.252-56.498 5.482-14.31 13.529-29.752 5.547-44.01 12.266 7.955 20.638 21.419 22.044 35.95.717 5.404.43 11.341-.338 15.964-.13.586-.195 1.224-.365 1.719-.052.299-.091.494-.156.651v.143c.495-.443 1.003-.925 1.328-1.459 1.667-1.927 3.047-4.101 4.219-6.341v-.052c1.016-1.927 1.784-3.945 2.37-6.015 1.458-5.079 1.406-10.469.677-15.704-11.654-84.609 30.39-116.354 60.508-129.049-32.487 57.917 14.596 115.768 14.596 115.768-.859-46.224 26.237-60.169 26.237-60.169-9.935 73.242 46.263 81.406 43.307 145.781" />
		<path d="m590.173 156.767h.052c-.104.143-.208.247-.351.404.091-.157.195-.261.299-.404" />
		<path d="m586.193 1219.98h-83.242l.468-.455c4.974.052 11.42.104 19.584.052 14.7.052 35.039.052 62.994.052.039.091.144.247.196.351" />
		<path d="m789.63 1219.98h-67.226c.052-.104.156-.26.208-.351 27.435 0 48.086.091 63.49.299 1.211 0 2.369.052 3.528.052" />
	</g>
</svg>