<?xml version="1.0" encoding="UTF-8" standalone="no"?>
<!DOCTYPE svg PUBLIC "-//W3C//DTD SVG 1.1//EN" "http://www.w3.org/Graphics/SVG/1.1/DTD/svg11.dtd">
<svg width="100%" height="100%" viewBox="0 0 123 102" version="1.1" xmlns="http://www.w3.org/2000/svg" xmlns:xlink="http://www.w3.org/1999/xlink" xml:space="preserve" xmlns:serif="http://www.serif.com/" style="fill-rule:evenodd;clip-rule:evenodd;stroke-linecap:round;stroke-linejoin:round;stroke-miterlimit:1.5;">
    <g transform="matrix(1.5714,0,0,1.07618,-42.5984,-2.75372)">
        <path d="M98.493,66.931L103.63,34.692L47.656,34.692L52.434,64.68" style="fill:none;stroke:#D82529;stroke-width:3.34px;"/>
    </g>
    <g transform="matrix(1.5714,0,0,1.07618,-42.5984,-2.75372)">
        <path d="M65.95,79.2L82.507,79.2" style="fill:none;stroke:#D82529;stroke-width:3.34px;"/>
    </g>
    <g transform="matrix(1.20473,0,0,1.20473,-20.8625,-40.8187)">
        <g transform="matrix(0.974609,0,0,0.974609,50.6767,0.639711)">
            <circle cx="54.396" cy="105.363" r="13.787" style="fill:none;stroke:#D82529;stroke-width:3.21px;"/>
        </g>
        <g>
            <g transform="matrix(0.16299,0,0,0.16299,102.34,90.2821)">
                <path d="M0,-0.24L0.006,-0.24C-0.007,-0.221 -0.02,-0.208 -0.04,-0.188C-0.059,-0.156 -0.085,-0.124 -0.118,-0.091C-0.144,-0.058 -0.176,-0.032 -0.209,0L-0.209,-0.019C-0.202,-0.039 -0.196,-0.065 -0.189,-0.103C-0.183,-0.117 -0.176,-0.13 -0.176,-0.149C-0.176,-0.169 -0.169,-0.195 -0.163,-0.227L-0.157,-0.227C-0.104,-0.234 -0.052,-0.234 0,-0.24" style="fill:#D82529;fill-rule:nonzero;"/>
            </g>
            <g transform="matrix(0.16299,0,0,0.16299,106.543,112.645)">
                <path d="M0,0.007L-0.449,0.007L-0.456,0C-0.299,0 -0.149,0.007 0,0.007" style="fill:#D82529;fill-rule:nonzero;"/>
            </g>
            <g transform="matrix(-0.114148,0.116344,0.116344,0.114148,100.568,112.795)">
                <path d="M-2.219,0.886L-2.145,0.886L-0.367,-0.927L-0.451,-0.927C-0.897,-0.462 -1.475,0.137 -2.219,0.886" style="fill:#D82529;fill-rule:nonzero;"/>
            </g>
            <g transform="matrix(0.16299,0,0,0.16299,102.256,112.637)">
                <path d="M0,0.06L-10.761,0.06L-10.702,0C-10.058,0.007 -9.225,0.014 -8.17,0.007C-6.269,0.014 -3.639,0.014 -0.026,0.014C-0.02,0.027 -0.006,0.046 0,0.06" style="fill:#D82529;fill-rule:nonzero;"/>
            </g>
            <g transform="matrix(-0.16299,0,0,0.16299,105.127,112.639)">
                <path d="M-8.691,0.046L0,0.046C-0.007,0.032 -0.02,0.013 -0.026,0C-3.574,0 -6.243,0.013 -8.235,0.039C-8.392,0.039 -8.542,0.046 -8.691,0.046" style="fill:#D82529;fill-rule:nonzero;"/>
            </g>
            <g transform="matrix(0.16299,0,0,0.16299,102.306,90.2683)">
                <path d="M0,0.079C0.033,0.053 0.059,0.019 0.091,-0.006C0.065,0.026 0.033,0.053 0,0.085L0,0.079Z" style="fill:#D82529;fill-rule:nonzero;"/>
            </g>
            <g transform="matrix(0.16299,0,0,0.16299,105.127,95.4727)">
                <path d="M0,105.366C-1.647,108.165 -2.22,117.975 -2.389,126.972C-4.505,127.161 -6.64,127.252 -8.801,127.252C-10.962,127.252 -13.104,127.161 -15.22,126.972C-15.389,117.975 -15.962,108.165 -17.609,105.366L-28.371,105.366L-28.312,105.306C-19.985,97.717 -12.922,89.865 -8.899,81.389C-8.867,81.331 -8.84,81.279 -8.814,81.22L-8.795,81.22C-8.762,81.285 -8.729,81.356 -8.697,81.422C-4.661,89.904 2.422,97.762 10.761,105.366L0,105.366ZM5.247,-31.319C5.553,-29.931 5.742,-28.284 5.742,-26.319C5.742,-24.749 5.462,-23.22 4.935,-21.794C39.834,-15.322 66.35,15.352 66.35,52.1C66.35,66.677 62.177,80.296 54.958,91.832C44.255,86.012 37.934,92.013 32.804,95.809C32.791,95.815 32.785,95.822 32.771,95.835C31.736,93.764 27.44,91.193 20.194,83.284C17.108,73.434 13.912,63.61 11.061,53.689C4.974,36.217 5.521,17.331 -0.495,-0.174C-3.971,-12.986 -8.801,-2.401 -7.539,4.78C-6.295,15.131 -6.549,26.191 -5.82,36.542C4.03,33.424 4.524,45.109 5.019,51.594C5.391,55.792 5.28,59.203 7.435,62.719C9.935,68.226 12.415,75.928 9.856,81.63C10,74.443 8.196,67.882 4.277,61.891C1.237,57.276 3.906,51.157 2.487,45.975C1.25,41.437 -2.487,34.368 -6.23,40.318C-8.176,44.679 -7.871,49.77 -6.985,54.295C-5.566,59.763 -7.812,66.716 -8.795,73.141C-9.778,66.716 -12.023,59.763 -10.604,54.295C-9.719,49.77 -9.413,44.679 -11.36,40.318C-15.103,34.368 -18.84,41.437 -20.077,45.975C-21.496,51.157 -18.827,57.276 -21.867,61.891C-25.786,67.882 -27.589,74.443 -27.446,81.63C-30.004,75.928 -27.524,68.226 -25.024,62.719C-22.87,59.203 -22.98,55.792 -22.609,51.594C-22.114,45.109 -21.62,33.424 -11.77,36.542C-11.041,26.191 -11.294,15.131 -10.044,4.78C-8.789,-2.401 -13.619,-12.986 -17.095,-0.174C-23.11,17.331 -22.563,36.217 -28.65,53.689C-31.501,63.61 -34.698,73.434 -37.784,83.284C-45.036,91.2 -49.339,93.764 -50.368,95.842C-50.38,95.828 -50.4,95.822 -50.413,95.809C-55.543,92.013 -61.864,86.012 -72.566,91.832C-79.786,80.296 -83.959,66.677 -83.959,52.1C-83.959,15.768 -58.042,-14.626 -23.729,-21.566C-24.575,-23.382 -25.05,-25.335 -25.05,-27.315C-25.05,-28.526 -24.933,-29.749 -24.699,-30.992C-63.771,-23.531 -93.392,10.887 -93.392,52.1C-93.392,68.766 -88.549,84.325 -80.189,97.436C-66.232,119.33 -42.491,134.4 -15.175,136.444C-13.072,136.607 -10.943,136.685 -8.801,136.685C-6.66,136.685 -4.537,136.607 -2.441,136.451C24.881,134.407 48.623,119.33 62.581,97.436C70.939,84.325 75.783,68.766 75.783,52.1C75.783,10.242 45.225,-24.613 5.247,-31.319" style="fill:#D82529;fill-rule:nonzero;"/>
            </g>
            <g transform="matrix(0.16299,0,0,0.16299,105.535,88.8451)">
                <path d="M0,14.344C-0.255,19.896 -4.795,24.574 -10.136,25.352C-14.126,26.034 -18.179,24.152 -20.877,21.257C-21.473,20.632 -22.001,19.953 -22.472,19.233C-22.472,19.233 -22.472,19.226 -22.479,19.22C-23.336,17.873 -23.976,16.36 -24.204,14.774C-24.559,12.315 -24.047,9.798 -23.267,7.469C-22.559,5.619 -21.518,3.622 -22.55,1.78C-20.963,2.809 -19.881,4.548 -19.699,6.428C-19.607,7.125 -19.644,7.893 -19.745,8.491C-19.761,8.567 -19.77,8.649 -19.79,8.713C-19.797,8.751 -19.803,8.778 -19.81,8.797L-19.81,8.817C-19.748,8.758 -19.682,8.697 -19.641,8.628C-19.424,8.377 -19.246,8.097 -19.094,7.808L-19.094,7.801C-18.963,7.552 -18.863,7.291 -18.787,7.024C-18.6,6.366 -18.606,5.669 -18.7,4.992C-20.207,-5.945 -14.771,-10.05 -10.878,-11.69C-15.077,-4.203 -8.99,3.277 -8.99,3.277C-9.101,-2.699 -5.599,-4.503 -5.599,-4.503C-6.883,4.966 0.382,6.021 0,14.344" style="fill:#D82529;fill-rule:nonzero;stroke:white;stroke-width:2.74px;stroke-linecap:butt;stroke-miterlimit:2;"/>
            </g>
            <g transform="matrix(0.16299,0,0,0.16299,102.34,90.2515)">
                <path d="M0,-0.052L0.006,-0.052C-0.007,-0.033 -0.02,-0.02 -0.04,0C-0.026,-0.02 -0.013,-0.033 0,-0.052" style="fill:#D82529;fill-rule:nonzero;"/>
            </g>
            <g transform="matrix(0.16299,0,0,0.16299,102.256,112.637)">
                <path d="M0,0.06L-10.761,0.06L-10.702,0C-10.058,0.007 -9.225,0.014 -8.17,0.007C-6.269,0.014 -3.639,0.014 -0.026,0.014C-0.02,0.027 -0.006,0.046 0,0.06" style="fill:#D82529;fill-rule:nonzero;"/>
            </g>
            <g transform="matrix(-0.16299,0,0,0.16299,105.127,112.639)">
                <path d="M-8.691,0.046L0,0.046C-0.007,0.032 -0.02,0.013 -0.026,0C-3.574,0 -6.243,0.013 -8.235,0.039C-8.392,0.039 -8.542,0.046 -8.691,0.046" style="fill:#D82529;fill-rule:nonzero;"/>
            </g>
        </g>
    </g>
    <g transform="matrix(0.948859,0.74232,-0.74232,0.948859,22.0021,-91.6039)">
        <g transform="matrix(0.974609,0,0,0.974609,50.6767,0.639711)">
            <circle cx="54.396" cy="105.363" r="13.787" style="fill:none;stroke:#D82529;stroke-width:3.21px;"/>
        </g>
        <g>
            <g transform="matrix(0.16299,0,0,0.16299,102.34,90.2821)">
                <path d="M0,-0.24L0.006,-0.24C-0.007,-0.221 -0.02,-0.208 -0.04,-0.188C-0.059,-0.156 -0.085,-0.124 -0.118,-0.091C-0.144,-0.058 -0.176,-0.032 -0.209,0L-0.209,-0.019C-0.202,-0.039 -0.196,-0.065 -0.189,-0.103C-0.183,-0.117 -0.176,-0.13 -0.176,-0.149C-0.176,-0.169 -0.169,-0.195 -0.163,-0.227L-0.157,-0.227C-0.104,-0.234 -0.052,-0.234 0,-0.24" style="fill:#D82529;fill-rule:nonzero;"/>
            </g>
            <g transform="matrix(0.16299,0,0,0.16299,106.543,112.645)">
                <path d="M0,0.007L-0.449,0.007L-0.456,0C-0.299,0 -0.149,0.007 0,0.007" style="fill:#D82529;fill-rule:nonzero;"/>
            </g>
            <g transform="matrix(-0.114148,0.116344,0.116344,0.114148,100.568,112.795)">
                <path d="M-2.219,0.886L-2.145,0.886L-0.367,-0.927L-0.451,-0.927C-0.897,-0.462 -1.475,0.137 -2.219,0.886" style="fill:#D82529;fill-rule:nonzero;"/>
            </g>
            <g transform="matrix(0.16299,0,0,0.16299,102.256,112.637)">
                <path d="M0,0.06L-10.761,0.06L-10.702,0C-10.058,0.007 -9.225,0.014 -8.17,0.007C-6.269,0.014 -3.639,0.014 -0.026,0.014C-0.02,0.027 -0.006,0.046 0,0.06" style="fill:#D82529;fill-rule:nonzero;"/>
            </g>
            <g transform="matrix(-0.16299,0,0,0.16299,105.127,112.639)">
                <path d="M-8.691,0.046L0,0.046C-0.007,0.032 -0.02,0.013 -0.026,0C-3.574,0 -6.243,0.013 -8.235,0.039C-8.392,0.039 -8.542,0.046 -8.691,0.046" style="fill:#D82529;fill-rule:nonzero;"/>
            </g>
            <g transform="matrix(0.16299,0,0,0.16299,102.306,90.2683)">
                <path d="M0,0.079C0.033,0.053 0.059,0.019 0.091,-0.006C0.065,0.026 0.033,0.053 0,0.085L0,0.079Z" style="fill:#D82529;fill-rule:nonzero;"/>
            </g>
            <g transform="matrix(0.16299,0,0,0.16299,105.127,95.4727)">
                <path d="M0,105.366C-1.647,108.165 -2.22,117.975 -2.389,126.972C-4.505,127.161 -6.64,127.252 -8.801,127.252C-10.962,127.252 -13.104,127.161 -15.22,126.972C-15.389,117.975 -15.962,108.165 -17.609,105.366L-28.371,105.366L-28.312,105.306C-19.985,97.717 -12.922,89.865 -8.899,81.389C-8.867,81.331 -8.84,81.279 -8.814,81.22L-8.795,81.22C-8.762,81.285 -8.729,81.356 -8.697,81.422C-4.661,89.904 2.422,97.762 10.761,105.366L0,105.366ZM5.247,-31.319C5.553,-29.931 5.742,-28.284 5.742,-26.319C5.742,-24.749 5.462,-23.22 4.935,-21.794C39.834,-15.322 66.35,15.352 66.35,52.1C66.35,66.677 62.177,80.296 54.958,91.832C44.255,86.012 37.934,92.013 32.804,95.809C32.791,95.815 32.785,95.822 32.771,95.835C31.736,93.764 27.44,91.193 20.194,83.284C17.108,73.434 13.912,63.61 11.061,53.689C4.974,36.217 5.521,17.331 -0.495,-0.174C-3.971,-12.986 -8.801,-2.401 -7.539,4.78C-6.295,15.131 -6.549,26.191 -5.82,36.542C4.03,33.424 4.524,45.109 5.019,51.594C5.391,55.792 5.28,59.203 7.435,62.719C9.935,68.226 12.415,75.928 9.856,81.63C10,74.443 8.196,67.882 4.277,61.891C1.237,57.276 3.906,51.157 2.487,45.975C1.25,41.437 -2.487,34.368 -6.23,40.318C-8.176,44.679 -7.871,49.77 -6.985,54.295C-5.566,59.763 -7.812,66.716 -8.795,73.141C-9.778,66.716 -12.023,59.763 -10.604,54.295C-9.719,49.77 -9.413,44.679 -11.36,40.318C-15.103,34.368 -18.84,41.437 -20.077,45.975C-21.496,51.157 -18.827,57.276 -21.867,61.891C-25.786,67.882 -27.589,74.443 -27.446,81.63C-30.004,75.928 -27.524,68.226 -25.024,62.719C-22.87,59.203 -22.98,55.792 -22.609,51.594C-22.114,45.109 -21.62,33.424 -11.77,36.542C-11.041,26.191 -11.294,15.131 -10.044,4.78C-8.789,-2.401 -13.619,-12.986 -17.095,-0.174C-23.11,17.331 -22.563,36.217 -28.65,53.689C-31.501,63.61 -34.698,73.434 -37.784,83.284C-45.036,91.2 -49.339,93.764 -50.368,95.842C-50.38,95.828 -50.4,95.822 -50.413,95.809C-55.543,92.013 -61.864,86.012 -72.566,91.832C-79.786,80.296 -83.959,66.677 -83.959,52.1C-83.959,15.768 -58.042,-14.626 -23.729,-21.566C-24.575,-23.382 -25.05,-25.335 -25.05,-27.315C-25.05,-28.526 -24.933,-29.749 -24.699,-30.992C-63.771,-23.531 -93.392,10.887 -93.392,52.1C-93.392,68.766 -88.549,84.325 -80.189,97.436C-66.232,119.33 -42.491,134.4 -15.175,136.444C-13.072,136.607 -10.943,136.685 -8.801,136.685C-6.66,136.685 -4.537,136.607 -2.441,136.451C24.881,134.407 48.623,119.33 62.581,97.436C70.939,84.325 75.783,68.766 75.783,52.1C75.783,10.242 45.225,-24.613 5.247,-31.319" style="fill:#D82529;fill-rule:nonzero;"/>
            </g>
            <g transform="matrix(0.16299,0,0,0.16299,105.535,88.8451)">
                <path d="M0,14.344C-0.255,19.896 -4.795,24.574 -10.136,25.352C-14.126,26.034 -18.179,24.152 -20.877,21.257C-21.473,20.632 -22.001,19.953 -22.472,19.233C-22.472,19.233 -22.472,19.226 -22.479,19.22C-23.336,17.873 -23.976,16.36 -24.204,14.774C-24.559,12.315 -24.047,9.798 -23.267,7.469C-22.559,5.619 -21.518,3.622 -22.55,1.78C-20.963,2.809 -19.881,4.548 -19.699,6.428C-19.607,7.125 -19.644,7.893 -19.745,8.491C-19.761,8.567 -19.77,8.649 -19.79,8.713C-19.797,8.751 -19.803,8.778 -19.81,8.797L-19.81,8.817C-19.748,8.758 -19.682,8.697 -19.641,8.628C-19.424,8.377 -19.246,8.097 -19.094,7.808L-19.094,7.801C-18.963,7.552 -18.863,7.291 -18.787,7.024C-18.6,6.366 -18.606,5.669 -18.7,4.992C-20.207,-5.945 -14.771,-10.05 -10.878,-11.69C-15.077,-4.203 -8.99,3.277 -8.99,3.277C-9.101,-2.699 -5.599,-4.503 -5.599,-4.503C-6.883,4.966 0.382,6.021 0,14.344" style="fill:#D82529;fill-rule:nonzero;stroke:white;stroke-width:2.74px;stroke-linecap:butt;stroke-miterlimit:2;"/>
            </g>
            <g transform="matrix(0.16299,0,0,0.16299,102.34,90.2515)">
                <path d="M0,-0.052L0.006,-0.052C-0.007,-0.033 -0.02,-0.02 -0.04,0C-0.026,-0.02 -0.013,-0.033 0,-0.052" style="fill:#D82529;fill-rule:nonzero;"/>
            </g>
            <g transform="matrix(0.16299,0,0,0.16299,102.256,112.637)">
                <path d="M0,0.06L-10.761,0.06L-10.702,0C-10.058,0.007 -9.225,0.014 -8.17,0.007C-6.269,0.014 -3.639,0.014 -0.026,0.014C-0.02,0.027 -0.006,0.046 0,0.06" style="fill:#D82529;fill-rule:nonzero;"/>
            </g>
            <g transform="matrix(-0.16299,0,0,0.16299,105.127,112.639)">
                <path d="M-8.691,0.046L0,0.046C-0.007,0.032 -0.02,0.013 -0.026,0C-3.574,0 -6.243,0.013 -8.235,0.039C-8.392,0.039 -8.542,0.046 -8.691,0.046" style="fill:#D82529;fill-rule:nonzero;"/>
            </g>
        </g>
    </g>
    <g transform="matrix(1.20473,0,0,1.20473,-20.8625,-33.8187)">
        <path d="M19.185,29.939L33.374,32.168L44.119,56.776" style="fill:none;stroke:#D82529;stroke-width:3.74px;"/>
    </g>
    <g transform="matrix(1,0,0,1,-2.54143,-15.8554)">
        <g transform="matrix(0.213151,0,0,0.213151,50.6541,66.1443)">
            <path d="M0,-11.219C0,-9.53 -0.591,-8.193 -1.771,-7.207C-2.951,-6.221 -4.582,-5.729 -6.662,-5.729L-12.183,-5.729L-12.183,-16.892L-6.722,-16.892C-4.602,-16.892 -2.951,-16.419 -1.771,-15.474C-0.591,-14.529 0,-13.15 0,-11.341L0,-11.219ZM6.901,-22.743C5.381,-24.004 3.541,-24.964 1.38,-25.624C-0.78,-26.284 -3.181,-26.615 -5.822,-26.615L-28.137,-26.615L-23.826,-19.466L-23.826,15.396L-12.183,15.396L-12.183,3.393L-6.421,3.393C-3.821,3.393 -1.41,3.074 0.81,2.433C3.031,1.793 4.941,0.834 6.542,-0.448C8.141,-1.728 9.392,-3.308 10.292,-5.189C11.193,-7.069 11.643,-9.249 11.643,-11.731L11.643,-11.851C11.643,-14.17 11.232,-16.251 10.413,-18.092C9.592,-19.932 8.422,-21.483 6.901,-22.743" style="fill:#D82529;fill-rule:nonzero;"/>
        </g>
        <g transform="matrix(0.213151,0,0,0.213151,61.071,66.1896)">
            <path d="M0,-11.643C0,-10.122 -0.54,-8.912 -1.621,-8.012C-2.701,-7.111 -4.242,-6.662 -6.242,-6.662L-13.924,-6.662L-13.924,-16.744L-6.302,-16.744C-4.342,-16.744 -2.801,-16.333 -1.681,-15.513C-0.561,-14.693 0,-13.443 0,-11.762L0,-11.643ZM9.362,-4.321C10.922,-6.441 11.703,-9.122 11.703,-12.363L11.703,-12.483C11.703,-16.603 10.462,-19.865 7.981,-22.265C6.581,-23.706 4.761,-24.826 2.521,-25.626C0.279,-26.426 -2.461,-26.827 -5.702,-26.827L-29.877,-26.827L-25.566,-19.678L-25.566,15.184L-13.924,15.184L-13.924,2.461L-8.822,2.461L-0.36,15.184L13.083,15.184L3.061,0.541C5.701,-0.58 7.802,-2.2 9.362,-4.321" style="fill:#D82529;fill-rule:nonzero;"/>
        </g>
        <g transform="matrix(0.213151,0,0,0.213151,80.7256,66.164)">
            <path d="M0,-11.403L-8.642,-26.707L-21.905,-26.707L-5.941,-0.42L-5.941,15.304L5.762,15.304L5.762,-0.6L21.726,-26.707L8.702,-26.707L0,-11.403Z" style="fill:#D82529;fill-rule:nonzero;"/>
        </g>
        <g transform="matrix(0.213151,0,0,0.213151,100.342,64.5523)">
            <path d="M0,4.501C0,7.462 -0.695,9.642 -2.085,11.042C-3.475,12.443 -5.34,13.143 -7.682,13.143C-10.024,13.143 -11.891,12.413 -13.28,10.952C-14.67,9.492 -15.364,7.241 -15.364,4.201L-15.364,-19.145L-31.558,-19.145L-27.247,-11.997L-27.247,4.44C-27.247,7.722 -26.797,10.572 -25.896,12.993C-24.996,15.414 -23.706,17.414 -22.025,18.994C-20.345,20.575 -18.305,21.745 -15.904,22.505C-13.504,23.265 -10.803,23.646 -7.802,23.646C-4.802,23.646 -2.092,23.265 0.33,22.505C2.75,21.745 4.811,20.575 6.512,18.994C8.211,17.414 9.532,15.394 10.473,12.933C11.412,10.472 11.883,7.542 11.883,4.141L11.883,-19.145L0,-19.145L0,4.501Z" style="fill:#D82529;fill-rule:nonzero;"/>
        </g>
        <g transform="matrix(0.213151,0,0,0.213151,110.862,66.1443)">
            <path d="M0,-11.219C0,-9.53 -0.591,-8.193 -1.771,-7.207C-2.951,-6.221 -4.582,-5.729 -6.662,-5.729L-12.184,-5.729L-12.184,-16.892L-6.723,-16.892C-4.602,-16.892 -2.951,-16.419 -1.771,-15.474C-0.591,-14.529 0,-13.15 0,-11.341L0,-11.219ZM10.412,-18.092C9.592,-19.932 8.422,-21.483 6.901,-22.743C5.38,-24.004 3.54,-24.964 1.38,-25.624C-0.78,-26.284 -3.181,-26.615 -5.822,-26.615L-28.137,-26.615L-23.826,-19.466L-23.826,15.396L-12.184,15.396L-12.184,3.393L-6.422,3.393C-3.821,3.393 -1.41,3.074 0.81,2.433C3.03,1.793 4.94,0.834 6.541,-0.448C8.141,-1.728 9.392,-3.308 10.292,-5.189C11.192,-7.069 11.643,-9.249 11.643,-11.731L11.643,-11.851C11.643,-14.17 11.231,-16.251 10.412,-18.092" style="fill:#D82529;fill-rule:nonzero;"/>
        </g>
        <g transform="matrix(0.213151,0,0,0.213151,69.3516,69.4262)">
            <path d="M0,-42.311L-17.885,0L-5.642,0L-3.634,-5.02L0.82,-16.504L2.566,-21.005L5.521,-28.448L8.438,-21.005L8.439,-21.003L10.166,-16.504L14.576,-5.02L16.624,0L29.106,0L11.223,-42.311L0,-42.311Z" style="fill:#D82529;fill-rule:nonzero;"/>
        </g>
    </g>
    <g transform="matrix(1,0,0,1,-1.54143,-14.8554)">
        <path d="M47,73L108,73" style="fill:none;stroke:#D82529;stroke-width:4.5px;"/>
    </g>
</svg>
