<?xml version="1.0" encoding="UTF-8" standalone="no"?><!DOCTYPE svg PUBLIC "-//W3C//DTD SVG 1.1//EN" "http://www.w3.org/Graphics/SVG/1.1/DTD/svg11.dtd"><svg width="100%" height="100%" viewBox="0 0 48 44" version="1.1" xmlns="http://www.w3.org/2000/svg" xmlns:xlink="http://www.w3.org/1999/xlink" xml:space="preserve" xmlns:serif="http://www.serif.com/" style="fill-rule:evenodd;clip-rule:evenodd;stroke-linejoin:round;stroke-miterlimit:2;"><path d="M4.321,13.935l-4.321,0l24,-12.792l24,12.792l-4.296,0l-0,16.21l-39.383,0l0,-16.21Z"/><path d="M13.091,0.085l-5.402,0l0,9.133l5.402,-2.842l-0,-6.291Z"/><path d="M11.842,30.837l0,12.26l-3.208,0l-0,-5.149l-0.96,-0l-0,5.149l-3.209,0l0,-12.26l3.209,-0l-0,4.384l0.96,0l-0,-4.384l3.208,-0Z" style="fill-rule:nonzero;"/><path d="M20.461,38.016c0,1.232 -0.029,2.104 -0.088,2.616c-0.058,0.513 -0.241,0.981 -0.548,1.405c-0.308,0.424 -0.723,0.75 -1.246,0.977c-0.523,0.227 -1.133,0.341 -1.829,0.341c-0.661,-0 -1.254,-0.107 -1.78,-0.322c-0.525,-0.215 -0.948,-0.536 -1.268,-0.966c-0.32,-0.429 -0.511,-0.896 -0.572,-1.401c-0.061,-0.504 -0.091,-1.388 -0.091,-2.65l-0,-2.098c-0,-1.232 0.029,-2.104 0.087,-2.616c0.059,-0.513 0.242,-0.981 0.549,-1.405c0.307,-0.424 0.723,-0.75 1.246,-0.977c0.523,-0.227 1.133,-0.341 1.829,-0.341c0.66,0 1.253,0.107 1.779,0.322c0.526,0.215 0.949,0.536 1.269,0.966c0.32,0.429 0.511,0.896 0.572,1.401c0.061,0.504 0.091,1.388 0.091,2.65l0,2.098Zm-3.208,-4.029c-0,-0.571 -0.032,-0.935 -0.095,-1.094c-0.064,-0.159 -0.195,-0.239 -0.393,-0.239c-0.168,0 -0.296,0.065 -0.385,0.193c-0.089,0.129 -0.133,0.509 -0.133,1.14l-0,5.725c-0,0.712 0.029,1.151 0.088,1.318c0.058,0.166 0.194,0.25 0.407,0.25c0.219,-0 0.358,-0.096 0.419,-0.288c0.061,-0.192 0.092,-0.649 0.092,-1.371l-0,-5.634Z" style="fill-rule:nonzero;"/><path d="M28.951,30.837l-0,8.194c-0,0.929 -0.031,1.581 -0.092,1.957c-0.061,0.376 -0.241,0.763 -0.541,1.159c-0.3,0.396 -0.695,0.697 -1.185,0.901c-0.49,0.205 -1.068,0.307 -1.734,0.307c-0.736,-0 -1.387,-0.121 -1.951,-0.364c-0.564,-0.242 -0.985,-0.558 -1.265,-0.946c-0.279,-0.389 -0.444,-0.799 -0.495,-1.231c-0.051,-0.432 -0.076,-1.339 -0.076,-2.722l-0,-7.255l3.208,-0l0,9.193c0,0.535 0.029,0.877 0.088,1.026c0.058,0.149 0.176,0.224 0.354,0.224c0.203,-0 0.334,-0.082 0.393,-0.246c0.058,-0.164 0.087,-0.552 0.087,-1.163l0,-9.034l3.209,-0Z" style="fill-rule:nonzero;"/><path d="M36.99,34.547l-2.979,0l-0,-0.908c-0,-0.424 -0.038,-0.695 -0.115,-0.811c-0.076,-0.116 -0.203,-0.174 -0.381,-0.174c-0.193,0 -0.339,0.078 -0.438,0.235c-0.099,0.156 -0.149,0.394 -0.149,0.712c0,0.409 0.056,0.717 0.168,0.924c0.107,0.207 0.409,0.457 0.907,0.749c1.428,0.844 2.327,1.535 2.698,2.075c0.371,0.541 0.556,1.412 0.556,2.613c0,0.874 -0.103,1.517 -0.309,1.931c-0.205,0.414 -0.603,0.761 -1.192,1.042c-0.59,0.28 -1.275,0.42 -2.058,0.42c-0.858,-0 -1.591,-0.162 -2.198,-0.485c-0.607,-0.323 -1.005,-0.734 -1.193,-1.234c-0.188,-0.5 -0.282,-1.209 -0.282,-2.128l0,-0.803l2.98,-0l-0,1.492c-0,0.459 0.042,0.755 0.125,0.886c0.084,0.131 0.233,0.197 0.446,0.197c0.214,-0 0.372,-0.084 0.477,-0.25c0.104,-0.167 0.156,-0.414 0.156,-0.742c-0,-0.722 -0.099,-1.194 -0.297,-1.416c-0.204,-0.223 -0.704,-0.594 -1.502,-1.114c-0.797,-0.525 -1.326,-0.906 -1.585,-1.143c-0.259,-0.237 -0.474,-0.566 -0.644,-0.985c-0.17,-0.419 -0.255,-0.954 -0.255,-1.605c-0,-0.939 0.121,-1.626 0.362,-2.06c0.241,-0.434 0.631,-0.774 1.17,-1.019c0.538,-0.244 1.189,-0.367 1.951,-0.367c0.833,0 1.543,0.134 2.13,0.401c0.586,0.268 0.975,0.605 1.166,1.011c0.19,0.407 0.285,1.097 0.285,2.072l0,0.484Z" style="fill-rule:nonzero;"/><path d="M38.263,30.837l5.35,-0l-0,2.453l-2.142,0l0,2.325l2.004,0l0,2.333l-2.004,-0l0,2.696l2.355,-0l0,2.453l-5.563,0l-0,-12.26Z" style="fill-rule:nonzero;"/><path d="M14.317,12.553l0,16.665l-3.954,-0l0,-7l-1.183,0l-0,7l-3.954,-0l0,-16.665l3.954,-0l-0,5.959l1.183,0l0,-5.959l3.954,-0Z" style="fill:#fff;fill-rule:nonzero;"/><path d="M24.939,22.311c-0,1.674 -0.036,2.86 -0.108,3.556c-0.072,0.697 -0.297,1.333 -0.676,1.91c-0.379,0.576 -0.891,1.019 -1.536,1.327c-0.645,0.309 -1.396,0.464 -2.254,0.464c-0.814,-0 -1.545,-0.146 -2.193,-0.438c-0.648,-0.291 -1.169,-0.729 -1.563,-1.312c-0.395,-0.584 -0.63,-1.218 -0.705,-1.905c-0.075,-0.686 -0.112,-1.887 -0.112,-3.602l-0,-2.852c-0,-1.674 0.036,-2.859 0.108,-3.556c0.072,-0.696 0.297,-1.333 0.676,-1.909c0.379,-0.577 0.89,-1.019 1.535,-1.328c0.645,-0.309 1.396,-0.463 2.254,-0.463c0.814,-0 1.545,0.145 2.193,0.437c0.648,0.292 1.169,0.729 1.564,1.312c0.394,0.584 0.629,1.219 0.704,1.905c0.075,0.686 0.113,1.887 0.113,3.602l-0,2.852Zm-3.954,-5.476c0,-0.776 -0.039,-1.272 -0.117,-1.488c-0.079,-0.216 -0.24,-0.324 -0.484,-0.324c-0.207,-0 -0.365,0.087 -0.474,0.262c-0.11,0.175 -0.165,0.692 -0.165,1.55l0,7.781c0,0.968 0.036,1.565 0.108,1.792c0.072,0.226 0.24,0.339 0.503,0.339c0.269,0 0.441,-0.13 0.516,-0.391c0.076,-0.261 0.113,-0.882 0.113,-1.863l0,-7.658Z" style="fill:#fff;fill-rule:nonzero;"/><path d="M26.413,12.553l3.982,-0c1.077,-0 1.905,0.092 2.485,0.277c0.579,0.186 1.014,0.453 1.305,0.803c0.291,0.35 0.488,0.774 0.592,1.272c0.103,0.497 0.155,1.267 0.155,2.31l-0,1.452c-0,1.064 -0.101,1.839 -0.301,2.326c-0.2,0.487 -0.568,0.861 -1.103,1.122c-0.536,0.261 -1.235,0.391 -2.099,0.391l-1.062,0l0,6.712l-3.954,-0l0,-16.665Zm3.954,2.851l0,4.241c0.113,0.007 0.21,0.01 0.291,0.01c0.364,0 0.616,-0.098 0.756,-0.293c0.141,-0.196 0.212,-0.603 0.212,-1.22l-0,-1.369c-0,-0.57 -0.082,-0.94 -0.244,-1.112c-0.163,-0.171 -0.501,-0.257 -1.015,-0.257Z" style="fill:#fff;fill-rule:nonzero;"/><path d="M36.068,12.553l6.593,-0l-0,3.335l-2.639,-0l-0,3.16l2.47,-0l-0,3.17l-2.47,0l-0,3.665l2.902,-0l-0,3.335l-6.856,-0l-0,-16.665Z" style="fill:#fff;fill-rule:nonzero;"/></svg>