<?xml version="1.0" encoding="UTF-8" standalone="no"?><!DOCTYPE svg PUBLIC "-//W3C//DTD SVG 1.1//EN" "http://www.w3.org/Graphics/SVG/1.1/DTD/svg11.dtd"><svg width="100%" height="100%" viewBox="0 0 5740 1463" version="1.1" xmlns="http://www.w3.org/2000/svg" xmlns:xlink="http://www.w3.org/1999/xlink" xml:space="preserve" xmlns:serif="http://www.serif.com/" style="fill-rule:evenodd;clip-rule:evenodd;stroke-linejoin:round;stroke-miterlimit:2;"><path d="M1909.66,714.953c-0,21.992 -7.696,39.401 -23.06,52.24c-15.365,12.838 -36.602,19.245 -63.685,19.245l-71.888,-0l-0,-145.352l71.107,-0c27.604,-0 49.101,6.159 64.466,18.463c15.364,12.305 23.06,30.261 23.06,53.829l-0,1.575Zm89.856,-150.052c-19.791,-16.406 -43.75,-28.906 -71.888,-37.513c-28.125,-8.594 -59.388,-12.904 -93.776,-12.904l-290.56,0l56.133,93.086l0,453.933l151.602,-0l-0,-156.289l75.026,-0c33.854,-0 65.247,-4.154 94.153,-12.5c28.92,-8.321 53.789,-20.821 74.636,-37.513c20.82,-16.667 37.109,-37.24 48.828,-61.732c11.732,-24.479 17.591,-52.865 17.591,-85.183l0,-1.562c0,-30.195 -5.351,-57.292 -16.016,-81.263c-10.69,-23.958 -25.924,-44.154 -45.729,-60.56" style="fill:#da2529;fill-rule:nonzero;"/><path d="M2546,712.206c0,19.804 -7.031,35.547 -21.107,47.278c-14.062,11.719 -34.127,17.565 -60.169,17.565l-100.026,0l-0,-131.276l99.245,0c25.521,0 45.586,5.365 60.169,16.029c14.583,10.677 21.888,26.953 21.888,48.841l0,1.563Zm121.901,95.325c20.313,-27.604 30.482,-62.5 30.482,-104.713l-0,-1.563c-0,-53.646 -16.159,-96.12 -48.464,-127.37c-18.229,-18.75 -41.927,-33.333 -71.093,-43.75c-29.193,-10.429 -64.87,-15.651 -107.071,-15.651l-314.778,0l56.132,93.086l0,453.933l151.589,-0l-0,-165.651l66.432,-0l110.183,165.651l175.039,-0l-130.495,-190.664c34.375,-14.584 61.732,-35.691 82.044,-63.308" style="fill:#da2529;fill-rule:nonzero;"/><path d="M3746.65,713.758l-112.526,-199.271l-172.696,-0l207.865,342.279l-0,204.739l152.383,0l-0,-207.083l207.864,-339.935l-169.583,-0l-113.307,199.271Z" style="fill:#da2529;fill-rule:nonzero;"/><path d="M4944.99,822.388c-0,38.555 -9.049,66.953 -27.148,85.169c-18.099,18.242 -42.383,27.357 -72.878,27.357c-30.495,0 -54.805,-9.492 -72.891,-28.529c-18.099,-19.01 -27.135,-48.307 -27.135,-87.903l-0,-303.985l-210.859,0l56.132,93.073l0,214.037c0,42.721 5.86,79.831 17.591,111.354c11.719,31.523 28.516,57.565 50.404,78.138c21.875,20.586 48.438,35.833 79.701,45.729c31.25,9.883 66.419,14.844 105.494,14.844c39.063,-0 74.349,-4.961 105.886,-14.844c31.51,-9.896 58.346,-25.143 80.495,-45.729c22.122,-20.573 39.323,-46.875 51.575,-78.919c12.227,-32.032 18.36,-70.196 18.36,-114.479l-0,-303.204l-154.727,0l-0,307.891Z" style="fill:#da2529;fill-rule:nonzero;"/><path d="M5587.59,714.953c-0,21.992 -7.696,39.401 -23.06,52.24c-15.365,12.838 -36.602,19.245 -63.685,19.245l-71.901,-0l-0,-145.352l71.107,-0c27.617,-0 49.114,6.159 64.479,18.463c15.364,12.305 23.06,30.261 23.06,53.829l-0,1.575Zm135.573,-89.492c-10.678,-23.958 -25.912,-44.154 -45.717,-60.56c-19.804,-16.406 -43.763,-28.906 -71.888,-37.513c-28.125,-8.594 -59.388,-12.904 -93.776,-12.904l-290.56,0l56.133,93.086l0,453.933l151.589,-0l-0,-156.289l75.026,-0c33.867,-0 65.26,-4.154 94.167,-12.5c28.906,-8.321 53.776,-20.821 74.622,-37.513c20.833,-16.667 37.122,-37.24 48.841,-61.732c11.719,-24.479 17.591,-52.865 17.591,-85.183l0,-1.562c0,-30.195 -5.364,-57.292 -16.028,-81.263" style="fill:#da2529;fill-rule:nonzero;"/><path d="M3051.84,510.587l-232.877,550.925l159.414,-0l26.145,-65.352l57.995,-149.544l22.735,-58.607l38.476,-96.914l37.982,96.914l0.013,0.039l22.487,58.568l57.422,149.544l26.666,65.352l162.527,-0l-232.852,-550.925l-146.133,0Z" style="fill:#da2529;fill-rule:nonzero;"/><path d="M590.173,156.767l0.052,-0c-0.104,0.143 -0.208,0.247 -0.351,0.404c-0.157,0.247 -0.352,0.494 -0.612,0.742c-0.196,0.26 -0.443,0.469 -0.703,0.716l-0,-0.156c0.052,-0.144 0.104,-0.352 0.156,-0.651c0.052,-0.105 0.104,-0.209 0.104,-0.352c0,-0.156 0.039,-0.352 0.091,-0.612l0.052,0c0.404,-0.052 0.808,-0.052 1.211,-0.091" style="fill:#da2529;fill-rule:nonzero;"/><path d="M789.63,1219.98l-3.476,0l-0.052,-0.052c1.211,0 2.369,0.052 3.528,0.052" style="fill:#da2529;fill-rule:nonzero;"/><path d="M523.003,1219.57l-0.404,0.404l-19.648,-0l0.468,-0.456c4.974,0.052 11.42,0.104 19.584,0.052" style="fill:#da2529;fill-rule:nonzero;"/><path d="M586.193,1219.98l-83.242,0l0.468,-0.455c4.974,0.052 11.42,0.104 19.584,0.052c14.7,0.052 35.039,0.052 62.994,0.052c0.039,0.091 0.144,0.247 0.196,0.351" style="fill:#da2529;fill-rule:nonzero;"/><path d="M789.63,1219.98l-67.226,0c0.052,-0.104 0.156,-0.26 0.208,-0.351c27.435,-0 48.086,0.091 63.49,0.299c1.211,0 2.369,0.052 3.528,0.052" style="fill:#da2529;fill-rule:nonzero;"/><path d="M588.557,158.579c0.261,-0.208 0.456,-0.455 0.703,-0.664c-0.195,0.261 -0.442,0.456 -0.703,0.703l0,-0.039Z" style="fill:#da2529;fill-rule:nonzero;"/><path d="M722.409,1219.98c-12.748,21.654 -17.175,97.527 -18.477,167.136c-16.367,1.445 -32.89,2.161 -49.609,2.161c-16.719,0 -33.281,-0.716 -49.649,-2.161c-1.315,-69.609 -5.742,-145.482 -18.476,-167.136l-83.242,0l0.455,-0.455c64.402,-58.711 119.037,-119.44 150.157,-185c0.247,-0.456 0.455,-0.873 0.664,-1.315l0.143,-0c0.247,0.494 0.508,1.054 0.755,1.549c31.224,65.625 86.003,126.393 150.521,185.221l-83.242,0Zm40.586,-1057.28c2.37,10.729 3.828,23.476 3.828,38.672c-0,12.148 -2.162,23.984 -6.25,35c269.961,50.065 475.065,287.33 475.065,571.588c0,112.761 -32.279,218.086 -88.138,307.331c-82.773,-45.026 -131.667,1.406 -171.354,30.755c-0.104,0.052 -0.143,0.104 -0.248,0.209c-8.007,-16.016 -41.237,-35.899 -97.291,-97.084c-23.867,-76.198 -48.594,-152.187 -70.651,-228.919c-47.071,-135.156 -42.852,-281.237 -89.375,-416.641c-26.888,-99.114 -64.258,-17.226 -54.492,38.321c9.622,80.065 7.656,165.625 13.294,245.677c76.198,-24.115 80.026,66.276 83.841,116.432c2.878,32.474 2.018,58.854 18.685,86.055c19.336,42.604 38.528,102.174 18.737,146.276c1.107,-55.586 -12.839,-106.354 -43.151,-152.67c-23.516,-35.703 -2.878,-83.033 -13.854,-123.112c-9.571,-35.117 -38.477,-89.791 -67.422,-43.776c-15.052,33.737 -12.696,73.125 -5.847,108.125c10.977,42.292 -6.393,96.068 -13.997,145.769c-7.604,-49.701 -24.974,-103.477 -13.997,-145.769c6.849,-35 9.218,-74.388 -5.847,-108.125c-28.945,-46.015 -57.851,8.659 -67.422,43.776c-10.976,40.079 9.662,87.409 -13.841,123.112c-30.312,46.316 -44.271,97.084 -43.164,152.67c-19.792,-44.102 -0.599,-103.672 18.737,-146.276c16.667,-27.201 15.807,-53.581 18.685,-86.055c3.828,-50.156 7.643,-140.547 83.841,-116.432c5.638,-80.052 3.672,-165.612 13.347,-245.677c9.713,-55.547 -27.657,-137.435 -54.545,-38.321c-46.523,135.404 -42.291,281.485 -89.375,416.641c-22.057,76.732 -46.784,152.721 -70.651,228.919c-56.094,61.224 -89.388,81.068 -97.344,97.136c-0.091,-0.105 -0.247,-0.157 -0.351,-0.261c-39.675,-29.349 -88.568,-75.781 -171.354,-30.755c-55.847,-89.245 -88.125,-194.57 -88.125,-307.331c-0,-281.041 200.468,-516.146 465.885,-569.817c-6.536,-14.05 -10.221,-29.167 -10.221,-44.467c-0,-9.375 0.911,-18.841 2.721,-28.45c-302.226,57.708 -531.354,323.932 -531.354,642.734c0,128.92 37.461,249.271 102.122,350.677c107.969,169.349 291.615,285.925 502.904,301.732c16.263,1.263 32.734,1.862 49.297,1.862c16.562,0 32.982,-0.599 49.206,-1.81c211.341,-15.807 394.987,-132.435 502.942,-301.784c64.662,-101.406 102.136,-221.757 102.136,-350.677c-0,-323.789 -236.38,-593.385 -545.612,-645.26" style="fill:#da2529;fill-rule:nonzero;"/><path d="M741.794,201.38c-1.966,42.943 -37.096,79.141 -78.398,85.156c-30.873,5.274 -62.227,-9.283 -83.086,-31.679c-4.609,-4.831 -8.698,-10.078 -12.344,-15.664c0,-0 0,-0.052 -0.052,-0.104c-6.628,-10.404 -11.575,-22.123 -13.346,-34.388c-2.735,-19.024 1.211,-38.49 7.252,-56.498c5.482,-14.31 13.529,-29.752 5.547,-44.01c12.266,7.955 20.638,21.419 22.044,35.95c0.717,5.404 0.43,11.341 -0.338,15.964c-0.13,0.586 -0.195,1.224 -0.365,1.719c-0.052,0.299 -0.091,0.494 -0.156,0.651l0,0.143c0.495,-0.443 1.003,-0.925 1.328,-1.459c1.667,-1.927 3.047,-4.101 4.219,-6.341l-0,-0.052c1.016,-1.927 1.784,-3.945 2.37,-6.015c1.458,-5.079 1.406,-10.469 0.677,-15.704c-11.654,-84.609 30.39,-116.354 60.508,-129.049c-32.487,57.917 14.596,115.768 14.596,115.768c-0.859,-46.224 26.237,-60.169 26.237,-60.169c-9.935,73.242 46.263,81.406 43.307,145.781" style="fill:#da2529;fill-rule:nonzero;"/><path d="M590.173,156.767l0.052,-0c-0.104,0.143 -0.208,0.247 -0.351,0.404c0.091,-0.157 0.195,-0.261 0.299,-0.404" style="fill:#da2529;fill-rule:nonzero;"/><path d="M586.193,1219.98l-83.242,0l0.468,-0.455c4.974,0.052 11.42,0.104 19.584,0.052c14.7,0.052 35.039,0.052 62.994,0.052c0.039,0.091 0.144,0.247 0.196,0.351" style="fill:#da2529;fill-rule:nonzero;"/><path d="M789.63,1219.98l-67.226,0c0.052,-0.104 0.156,-0.26 0.208,-0.351c27.435,-0 48.086,0.091 63.49,0.299c1.211,0 2.369,0.052 3.528,0.052" style="fill:#da2529;fill-rule:nonzero;"/></svg>