<?xml version="1.0" encoding="UTF-8" standalone="no"?>
<!DOCTYPE svg PUBLIC "-//W3C//DTD SVG 1.1//EN" "http://www.w3.org/Graphics/SVG/1.1/DTD/svg11.dtd">
<svg width="100%" height="100%" viewBox="0 0 200 140" version="1.1" xmlns="http://www.w3.org/2000/svg" xmlns:xlink="http://www.w3.org/1999/xlink" xml:space="preserve" xmlns:serif="http://www.serif.com/" style="fill-rule:evenodd;clip-rule:evenodd;stroke-linejoin:round;stroke-miterlimit:2;">
    <g transform="matrix(0.390625,0,0,0.390625,0,-30)">
        <g id="Layer1">
            <g>
                <g transform="matrix(1.23777,0,0,1.0915,-60.4687,1.81294)">
                    <path d="M384.32,326.74C384.32,323.769 382.193,321.358 379.574,321.358L132.238,321.358C129.619,321.358 127.492,323.769 127.492,326.74L127.492,373.613C127.492,376.583 129.619,378.995 132.238,378.995L379.574,378.995C382.193,378.995 384.32,376.583 384.32,373.613L384.32,326.74Z"/>
                </g>
                <g transform="matrix(1.1694,0,0,1.17805,-48.0579,-19.7062)">
                    <path d="M177.273,170.999L223.122,303.376L190.64,303.376L177.273,170.999Z"/>
                </g>
                <g transform="matrix(-1.1694,0,0,1.17805,561.122,-19.6085)">
                    <path d="M177.273,170.999L223.122,303.376L190.64,303.376L177.273,170.999Z"/>
                </g>
                <g transform="matrix(1.1694,0,0,1.1694,-48.0579,-17.0802)">
                    <path d="M261.425,169.503L277.274,302.961L245.575,302.961L261.425,169.503Z"/>
                </g>
                <g transform="matrix(1.1694,0,0,1.1694,-48.0579,-17.0802)">
                    <path d="M165.729,152.22L165.434,160.091C172.882,165.588 179.075,164.166 184.266,157.212L182.744,152.22L252.257,152.22L252.202,157.655C258.203,162.158 264.205,162.498 270.207,158.264L269.843,152.22L339.436,152.22L337.117,156.542C342.056,164.248 348.107,166.01 355.469,160.766L355.961,152.22L383.405,152.22L383.405,303.076L396.575,303.076L396.575,96.545L124.495,96.545L124.495,303.076L137.221,303.076L137.221,152.22L165.729,152.22ZM160.915,139.398L186.642,139.398L173.778,131.858L160.915,139.398ZM247.567,139.398L273.294,139.398L260.431,131.858L247.567,139.398ZM334.141,139.398L359.867,139.398L347.004,131.858L334.141,139.398ZM186.653,124.31L211.084,138.822L211.084,109.988L186.653,124.31ZM310.4,138.413L334.136,124.314L310.4,110.399L310.4,138.413ZM223.848,138.4L247.563,124.314L223.848,110.412L223.848,138.4ZM137.221,138.385L160.91,124.314L137.221,110.427L137.221,138.385ZM273.306,124.31L296.925,138.339L296.925,110.464L273.306,124.31ZM359.879,124.31L383.405,138.284L383.405,110.519L359.879,124.31ZM248.348,109.485L260.438,116.666L272.528,109.485L248.348,109.485ZM161.695,109.485L173.785,116.666L185.875,109.485L161.695,109.485ZM334.921,109.485L347.011,116.666L359.101,109.485L334.921,109.485Z"/>
                </g>
                <g transform="matrix(1.1694,0,0,1.1694,-48.0579,-17.0802)">
                    <path d="M112.97,249.979C112.97,246.875 110.45,244.355 107.347,244.355L56.416,244.355C53.313,244.355 50.793,246.875 50.793,249.979L50.793,364.875C50.793,367.979 53.313,370.499 56.416,370.499L107.347,370.499C110.45,370.499 112.97,367.979 112.97,364.875L112.97,249.979ZM81.798,307.418C95.896,307.418 107.342,318.864 107.342,332.962C107.342,347.06 95.896,358.506 81.798,358.506C67.7,358.506 56.255,347.06 56.255,332.962C56.255,318.864 67.7,307.418 81.798,307.418ZM81.628,256.99C92.945,256.99 102.133,266.178 102.133,277.495C102.133,288.812 92.945,298 81.628,298C70.311,298 61.123,288.812 61.123,277.495C61.123,266.178 70.311,256.99 81.628,256.99Z"/>
                </g>
                <g transform="matrix(1.1694,0,0,1.1694,368.554,-17.0802)">
                    <path d="M112.97,249.979C112.97,246.875 110.45,244.355 107.347,244.355L56.416,244.355C53.313,244.355 50.793,246.875 50.793,249.979L50.793,364.875C50.793,367.979 53.313,370.499 56.416,370.499L107.347,370.499C110.45,370.499 112.97,367.979 112.97,364.875L112.97,249.979ZM81.798,307.418C95.896,307.418 107.342,318.864 107.342,332.962C107.342,347.06 95.896,358.506 81.798,358.506C67.7,358.506 56.255,347.06 56.255,332.962C56.255,318.864 67.7,307.418 81.798,307.418ZM81.628,256.99C92.945,256.99 102.133,266.178 102.133,277.495C102.133,288.812 92.945,298 81.628,298C70.311,298 61.123,288.812 61.123,277.495C61.123,266.178 70.311,256.99 81.628,256.99Z"/>
                </g>
            </g>
        </g>
    </g>
</svg>
