<?xml version="1.0" encoding="UTF-8" standalone="no"?>
<!DOCTYPE svg PUBLIC "-//W3C//DTD SVG 1.1//EN" "http://www.w3.org/Graphics/SVG/1.1/DTD/svg11.dtd">
<svg width="100%" height="100%" viewBox="0 0 708 475" version="1.1" xmlns="http://www.w3.org/2000/svg" xmlns:xlink="http://www.w3.org/1999/xlink" xml:space="preserve" xmlns:serif="http://www.serif.com/" style="fill-rule:evenodd;clip-rule:evenodd;stroke-linecap:round;stroke-linejoin:round;stroke-miterlimit:1.5;">
    <g transform="matrix(1,0,0,1,-61.6667,-72.6667)">
        <path d="M523,323L631,416L670,363L622,323" style="fill:none;stroke:rgb(216,37,41);stroke-width:26.67px;"/>
    </g>
    <g transform="matrix(1,0,0,1,-61.6667,-72.6667)">
        <path d="M481,382L590,480L631,426" style="fill:none;stroke:rgb(216,37,41);stroke-width:26.67px;"/>
    </g>
    <g transform="matrix(1,0,0,1,-61.6667,-72.6667)">
        <path d="M433,437L523,516L573,470" style="fill:none;stroke:rgb(216,37,41);stroke-width:26.67px;"/>
    </g>
    <g transform="matrix(1,0,0,1,-61.6667,-72.6667)">
        <path d="M378,483L436,534L479,497" style="fill:none;stroke:rgb(216,37,41);stroke-width:26.67px;"/>
    </g>
    <g transform="matrix(1,0,0,1,-61.6667,-72.6667)">
        <path d="M456,100L348,174L388,223L453,195L643,339L756,201L668,86L562,138L456,100Z" style="fill:none;stroke:rgb(216,37,41);stroke-width:26.67px;"/>
    </g>
    <g transform="matrix(1,0,0,1,-61.6667,-72.6667)">
        <path d="M109,347L198,261L243,308L154,396L109,347Z" style="fill:none;stroke:rgb(216,37,41);stroke-width:26.67px;"/>
    </g>
    <g transform="matrix(1,0,0,1,-61.6667,-72.6667)">
        <path d="M145,410L188,463L294,354L256,307L145,410Z" style="fill:none;stroke:rgb(216,37,41);stroke-width:26.67px;"/>
    </g>
    <g transform="matrix(1,0,0,1,-61.6667,-72.6667)">
        <path d="M208,465L253,501L334,411L294,371L208,465Z" style="fill:none;stroke:rgb(216,37,41);stroke-width:26.67px;"/>
    </g>
    <g transform="matrix(1,0,0,1,-61.6667,-72.6667)">
        <path d="M281,491L316,527L385,460L352,422L281,491Z" style="fill:none;stroke:rgb(216,37,41);stroke-width:26.67px;"/>
    </g>
    <g transform="matrix(1,0,0,1,-61.6667,-72.6667)">
        <path d="M157,290L75,209L172,102L268,130L362,98L406,118" style="fill:none;stroke:rgb(216,37,41);stroke-width:26.67px;"/>
    </g>
    <g transform="matrix(3.62608,1.74889e-15,-1.74889e-15,3.62608,610.447,99.1119)">
        <path d="M0,14.344C-0.255,19.896 -4.795,24.574 -10.136,25.352C-14.126,26.034 -18.179,24.152 -20.877,21.257C-21.473,20.632 -22.001,19.953 -22.472,19.233C-22.472,19.233 -22.472,19.226 -22.479,19.22C-23.336,17.873 -23.976,16.36 -24.204,14.774C-24.559,12.315 -24.047,9.798 -23.267,7.469C-22.559,5.619 -21.518,3.622 -22.55,1.78C-20.963,2.809 -19.881,4.548 -19.699,6.428C-19.607,7.125 -19.644,7.893 -19.745,8.491C-19.761,8.567 -19.77,8.649 -19.79,8.713C-19.797,8.751 -19.803,8.778 -19.81,8.797L-19.81,8.817C-19.748,8.758 -19.682,8.697 -19.641,8.628C-19.424,8.377 -19.246,8.097 -19.094,7.808L-19.094,7.801C-18.963,7.552 -18.863,7.291 -18.787,7.024C-18.6,6.366 -18.606,5.669 -18.7,4.992C-20.207,-5.945 -14.771,-10.05 -10.878,-11.69C-15.077,-4.203 -8.99,3.277 -8.99,3.277C-9.101,-2.699 -5.599,-4.503 -5.599,-4.503C-6.883,4.966 0.382,6.021 0,14.344" style="fill:rgb(216,37,41);fill-rule:nonzero;"/>
    </g>
    <g transform="matrix(-0.581641,0.660362,-0.660362,-0.581641,667.737,158.08)">
        <g transform="matrix(0.749357,0,0,0.749357,324.621,177.872)">
            <path d="M0,-0.24L0.006,-0.24C-0.007,-0.221 -0.021,-0.208 -0.039,-0.188C-0.059,-0.156 -0.085,-0.124 -0.117,-0.091C-0.144,-0.058 -0.176,-0.032 -0.209,0L-0.209,-0.019C-0.202,-0.039 -0.196,-0.065 -0.189,-0.103C-0.183,-0.117 -0.176,-0.13 -0.176,-0.149C-0.176,-0.169 -0.17,-0.195 -0.163,-0.227L-0.157,-0.227C-0.104,-0.234 -0.053,-0.234 0,-0.24" style="fill:rgb(218,37,41);fill-rule:nonzero;"/>
        </g>
        <g transform="matrix(0.749357,0,0,0.749357,343.944,280.687)">
            <path d="M0,0.007L-0.449,0.007L-0.455,0C-0.299,0 -0.149,0.007 0,0.007" style="fill:rgb(218,37,41);fill-rule:nonzero;"/>
        </g>
        <g transform="matrix(-0.524805,0.534898,0.534898,0.524805,316.475,281.375)">
            <path d="M-2.219,0.886L-2.145,0.886L-0.367,-0.927L-0.451,-0.927C-0.897,-0.462 -1.475,0.137 -2.219,0.886" style="fill:rgb(218,37,41);fill-rule:nonzero;"/>
        </g>
        <g transform="matrix(0.749357,0,0,0.749357,324.236,280.648)">
            <path d="M0,0.06L-10.761,0.06L-10.702,0C-10.058,0.007 -9.225,0.014 -8.17,0.007C-6.27,0.014 -3.639,0.014 -0.026,0.014C-0.02,0.027 -0.007,0.046 0,0.06" style="fill:rgb(218,37,41);fill-rule:nonzero;"/>
        </g>
        <g transform="matrix(-0.749357,0,0,0.749357,337.432,280.658)">
            <path d="M-8.69,0.046L0,0.046C-0.006,0.032 -0.019,0.013 -0.026,0C-3.574,0 -6.243,0.013 -8.235,0.039C-8.391,0.039 -8.541,0.046 -8.69,0.046" style="fill:rgb(218,37,41);fill-rule:nonzero;"/>
        </g>
        <g transform="matrix(0.749357,0,0,0.749357,324.465,177.808)">
            <path d="M0,0.079C0.033,0.053 0.059,0.019 0.092,-0.006C0.065,0.026 0.033,0.053 0,0.085L0,0.079Z" style="fill:rgb(218,37,41);fill-rule:nonzero;"/>
        </g>
        <g transform="matrix(0.749357,0,0,0.749357,337.431,201.736)">
            <path d="M0,105.366C-1.646,108.165 -2.22,117.975 -2.389,126.972C-4.505,127.161 -6.64,127.252 -8.802,127.252C-10.963,127.252 -13.104,127.161 -15.221,126.972C-15.39,117.975 -15.963,108.165 -17.609,105.366L-28.37,105.366L-28.312,105.306C-19.985,97.717 -12.922,89.865 -8.899,81.389C-8.867,81.331 -8.841,81.279 -8.814,81.22L-8.795,81.22C-8.763,81.285 -8.729,81.356 -8.697,81.422C-4.661,89.904 2.422,97.762 10.761,105.366L0,105.366ZM5.247,-31.319C5.553,-29.931 5.742,-28.284 5.742,-26.319C5.742,-24.749 5.462,-23.22 4.935,-21.794C39.835,-15.322 66.35,15.352 66.35,52.1C66.35,66.677 62.177,80.296 54.957,91.832C44.255,86.012 37.934,92.013 32.804,95.809C32.791,95.815 32.784,95.822 32.771,95.835C31.736,93.764 27.439,91.193 20.194,83.284C17.108,73.434 13.912,63.61 11.061,53.689C4.974,36.217 5.521,17.331 -0.495,-0.174C-3.971,-12.986 -8.802,-2.401 -7.539,4.78C-6.295,15.131 -6.549,26.191 -5.82,36.542C4.029,33.424 4.524,45.109 5.02,51.594C5.391,55.792 5.279,59.203 7.435,62.719C9.935,68.226 12.415,75.928 9.856,81.63C10,74.443 8.196,67.882 4.277,61.891C1.237,57.276 3.906,51.157 2.487,45.975C1.25,41.437 -2.486,34.368 -6.229,40.318C-8.177,44.679 -7.87,49.77 -6.985,54.295C-5.566,59.763 -7.812,66.716 -8.795,73.141C-9.778,66.716 -12.023,59.763 -10.604,54.295C-9.72,49.77 -9.413,44.679 -11.359,40.318C-15.103,34.368 -18.84,41.437 -20.077,45.975C-21.496,51.157 -18.827,57.276 -21.867,61.891C-25.786,67.882 -27.589,74.443 -27.446,81.63C-30.005,75.928 -27.524,68.226 -25.024,62.719C-22.869,59.203 -22.98,55.792 -22.609,51.594C-22.114,45.109 -21.62,33.424 -11.771,36.542C-11.041,26.191 -11.295,15.131 -10.045,4.78C-8.788,-2.401 -13.619,-12.986 -17.095,-0.174C-23.11,17.331 -22.563,36.217 -28.65,53.689C-31.502,63.61 -34.698,73.434 -37.784,83.284C-45.036,91.2 -49.339,93.764 -50.368,95.842C-50.381,95.828 -50.4,95.822 -50.413,95.809C-55.543,92.013 -61.864,86.012 -72.566,91.832C-79.786,80.296 -83.959,66.677 -83.959,52.1C-83.959,15.768 -58.043,-14.626 -23.729,-21.566C-24.575,-23.382 -25.051,-25.335 -25.051,-27.315C-25.051,-28.526 -24.934,-29.749 -24.699,-30.992C-63.771,-23.531 -93.393,10.887 -93.393,52.1C-93.393,68.766 -88.549,84.325 -80.189,97.436C-66.232,119.33 -42.49,134.4 -15.175,136.444C-13.072,136.607 -10.943,136.685 -8.802,136.685C-6.66,136.685 -4.537,136.607 -2.441,136.451C24.881,134.407 48.623,119.33 62.58,97.436C70.939,84.325 75.783,68.766 75.783,52.1C75.783,10.242 45.225,-24.613 5.247,-31.319" style="fill:rgb(218,37,41);fill-rule:nonzero;"/>
        </g>
        <g transform="matrix(0.749357,0,0,0.749357,339.31,171.265)">
            <path d="M0,14.344C-0.255,19.896 -4.796,24.574 -10.137,25.352C-14.127,26.034 -18.18,24.152 -20.878,21.257C-21.474,20.632 -22.002,19.953 -22.473,19.233C-22.473,19.233 -22.473,19.226 -22.479,19.22C-23.337,17.873 -23.977,16.36 -24.205,14.774C-24.56,12.315 -24.048,9.798 -23.267,7.469C-22.56,5.619 -21.519,3.622 -22.551,1.78C-20.964,2.809 -19.882,4.548 -19.699,6.428C-19.608,7.125 -19.645,7.893 -19.745,8.491C-19.762,8.567 -19.771,8.649 -19.791,8.713C-19.798,8.751 -19.804,8.778 -19.811,8.797L-19.811,8.817C-19.748,8.758 -19.683,8.697 -19.641,8.628C-19.424,8.377 -19.246,8.097 -19.095,7.808L-19.095,7.801C-18.964,7.552 -18.863,7.291 -18.787,7.024C-18.601,6.366 -18.607,5.669 -18.7,4.992C-20.208,-5.945 -14.771,-10.05 -10.879,-11.69C-15.078,-4.203 -8.991,3.277 -8.991,3.277C-9.102,-2.699 -5.599,-4.503 -5.599,-4.503C-6.884,4.966 0.382,6.021 0,14.344" style="fill:rgb(218,37,41);fill-rule:nonzero;"/>
        </g>
        <g transform="matrix(0.749357,0,0,0.749357,324.621,177.731)">
            <path d="M0,-0.052L0.006,-0.052C-0.007,-0.033 -0.021,-0.02 -0.039,0C-0.026,-0.02 -0.014,-0.033 0,-0.052" style="fill:rgb(218,37,41);fill-rule:nonzero;"/>
        </g>
        <g transform="matrix(0.749357,0,0,0.749357,324.236,280.648)">
            <path d="M0,0.06L-10.761,0.06L-10.702,0C-10.058,0.007 -9.225,0.014 -8.17,0.007C-6.27,0.014 -3.639,0.014 -0.026,0.014C-0.02,0.027 -0.007,0.046 0,0.06" style="fill:rgb(218,37,41);fill-rule:nonzero;"/>
        </g>
        <g transform="matrix(-0.749357,0,0,0.749357,337.432,280.658)">
            <path d="M-8.69,0.046L0,0.046C-0.006,0.032 -0.019,0.013 -0.026,0C-3.574,0 -6.243,0.013 -8.235,0.039C-8.391,0.039 -8.541,0.046 -8.69,0.046" style="fill:rgb(218,37,41);fill-rule:nonzero;"/>
        </g>
    </g>
</svg>
