<?xml version="1.0" encoding="UTF-8" standalone="no"?><!DOCTYPE svg PUBLIC "-//W3C//DTD SVG 1.1//EN" "http://www.w3.org/Graphics/SVG/1.1/DTD/svg11.dtd"><svg width="100%" height="100%" viewBox="0 0 821 460" version="1.1" xmlns="http://www.w3.org/2000/svg" xmlns:xlink="http://www.w3.org/1999/xlink" xml:space="preserve" xmlns:serif="http://www.serif.com/" style="fill-rule:evenodd;clip-rule:evenodd;stroke-linejoin:round;stroke-miterlimit:2;"><path d="M416.609,33.756l0.009,-0c-0.021,0.031 -0.043,0.053 -0.075,0.084c-0.031,0.056 -0.075,0.109 -0.128,0.166c-0.047,0.053 -0.1,0.096 -0.153,0.15l0,-0.032c0.01,-0.034 0.022,-0.078 0.031,-0.14c0.013,-0.022 0.022,-0.044 0.022,-0.078c0,-0.032 0.013,-0.075 0.022,-0.129l0.013,0c0.084,-0.012 0.172,-0.012 0.259,-0.021" style="fill:#da2529;fill-rule:nonzero;"/><path d="M459.558,262.7l-0.747,-0l-0.012,-0.009c0.259,-0 0.509,0.009 0.759,0.009" style="fill:#da2529;fill-rule:nonzero;"/><path d="M402.144,262.613l-0.088,0.088l-4.228,-0l0.097,-0.097c1.075,0.009 2.463,0.018 4.219,0.009" style="fill:#da2529;fill-rule:nonzero;"/><path d="M415.752,262.7l-17.922,-0l0.097,-0.097c1.071,0.009 2.459,0.022 4.218,0.009c3.166,0.013 7.547,0.013 13.563,0.013c0.012,0.019 0.034,0.053 0.044,0.075" style="fill:#da2529;fill-rule:nonzero;"/><path d="M459.558,262.7l-14.475,-0c0.013,-0.022 0.031,-0.056 0.044,-0.075c5.909,-0 10.356,0.019 13.672,0.066c0.259,-0 0.509,0.009 0.759,0.009" style="fill:#da2529;fill-rule:nonzero;"/><path d="M416.261,34.146c0.057,-0.044 0.097,-0.1 0.153,-0.14c-0.043,0.053 -0.096,0.096 -0.153,0.15l0,-0.01Z" style="fill:#da2529;fill-rule:nonzero;"/><path d="M445.082,262.7c-2.74,4.662 -3.697,21.003 -3.978,35.987c-3.525,0.316 -7.081,0.469 -10.681,0.469c-3.6,0 -7.166,-0.153 -10.691,-0.469c-0.281,-14.984 -1.237,-31.325 -3.981,-35.987l-17.922,-0l0.097,-0.097c13.869,-12.644 25.634,-25.722 32.334,-39.837c0.053,-0.1 0.097,-0.185 0.141,-0.285l0.034,0c0.053,0.11 0.107,0.228 0.163,0.338c6.722,14.128 18.519,27.215 32.409,39.881l-17.925,-0Zm8.741,-227.666c0.509,2.31 0.825,5.053 0.825,8.328c-0,2.613 -0.466,5.163 -1.347,7.538c58.131,10.778 102.297,61.869 102.297,123.081c-0,24.275 -6.95,46.963 -18.978,66.175c-17.825,-9.694 -28.353,0.303 -36.897,6.625c-0.022,0.013 -0.031,0.022 -0.056,0.044c-1.722,-3.45 -8.882,-7.731 -20.947,-20.906c-5.141,-16.407 -10.466,-32.769 -15.213,-49.294c-10.14,-29.1 -9.231,-60.556 -19.247,-89.716c-5.79,-21.34 -13.837,-3.706 -11.734,8.253c2.072,17.238 1.65,35.663 2.862,52.904c16.407,-5.194 17.232,14.268 18.054,25.068c0.621,6.994 0.434,12.678 4.025,18.532c4.162,9.175 8.293,22 4.031,31.5c0.24,-11.972 -2.763,-22.9 -9.291,-32.879c-5.062,-7.687 -0.619,-17.881 -2.981,-26.509c-2.059,-7.559 -8.284,-19.334 -14.519,-9.425c-3.244,7.266 -2.734,15.747 -1.259,23.281c2.365,9.11 -1.378,20.688 -3.013,31.391c-1.637,-10.703 -5.381,-22.281 -3.015,-31.391c1.475,-7.534 1.984,-16.015 -1.26,-23.281c-6.234,-9.909 -12.459,1.866 -14.518,9.425c-2.363,8.628 2.081,18.822 -2.982,26.509c-6.528,9.979 -9.531,20.907 -9.29,32.879c-4.263,-9.5 -0.132,-22.325 4.031,-31.5c3.591,-5.854 3.406,-11.538 4.025,-18.532c0.822,-10.8 1.647,-30.262 18.053,-25.068c1.213,-17.241 0.791,-35.666 2.872,-52.904c2.094,-11.959 -5.953,-29.593 -11.741,-8.253c-10.022,29.16 -9.109,60.616 -19.25,89.716c-4.747,16.525 -10.072,32.887 -15.212,49.294c-12.078,13.187 -19.247,17.456 -20.96,20.915c-0.021,-0.018 -0.053,-0.031 -0.075,-0.053c-8.543,-6.322 -19.075,-16.319 -36.9,-6.625c-12.025,-19.212 -18.975,-41.9 -18.975,-66.175c0,-60.515 43.166,-111.144 100.322,-122.703c-1.412,-3.025 -2.203,-6.278 -2.203,-9.575c0,-2.016 0.197,-4.056 0.588,-6.125c-65.082,12.425 -114.419,69.753 -114.419,138.403c-0,27.76 8.069,53.672 21.991,75.51c23.246,36.465 62.793,61.568 108.29,64.975c3.503,0.268 7.047,0.4 10.616,0.4c3.569,-0 7.103,-0.132 10.594,-0.391c45.509,-3.403 85.056,-28.519 108.3,-64.984c13.925,-21.838 21.993,-47.75 21.993,-75.51c0,-69.722 -50.9,-127.778 -117.487,-138.947" style="fill:#da2529;fill-rule:nonzero;"/><path d="M449.257,43.362c-0.425,9.247 -7.988,17.041 -16.881,18.335c-6.647,1.137 -13.397,-1.997 -17.891,-6.819c-0.994,-1.041 -1.875,-2.172 -2.659,-3.375c-0,0 -0,-0.009 -0.01,-0.019c-1.428,-2.243 -2.493,-4.765 -2.875,-7.406c-0.587,-4.097 0.263,-8.287 1.563,-12.166c1.178,-3.081 2.912,-6.409 1.19,-9.478c2.647,1.716 4.447,4.613 4.75,7.744c0.154,1.163 0.094,2.441 -0.075,3.434c-0.028,0.129 -0.04,0.263 -0.075,0.372c-0.012,0.063 -0.021,0.107 -0.034,0.138l0,0.034c0.106,-0.1 0.216,-0.2 0.284,-0.315c0.36,-0.416 0.657,-0.885 0.91,-1.366l-0,-0.009c0.219,-0.416 0.384,-0.85 0.512,-1.297c0.31,-1.094 0.3,-2.257 0.144,-3.382c-2.509,-18.218 6.544,-25.056 13.028,-27.787c-6.994,12.469 3.144,24.928 3.144,24.928c-0.184,-9.953 5.65,-12.956 5.65,-12.956c-2.138,15.769 9.962,17.525 9.325,31.39" style="fill:#da2529;fill-rule:nonzero;"/><path d="M416.609,33.756l0.009,-0c-0.021,0.031 -0.043,0.053 -0.075,0.084c0.022,-0.031 0.044,-0.053 0.066,-0.084" style="fill:#da2529;fill-rule:nonzero;"/><path d="M415.752,262.7l-17.922,-0l0.097,-0.097c1.071,0.009 2.459,0.022 4.218,0.009c3.166,0.013 7.547,0.013 13.563,0.013c0.012,0.019 0.034,0.053 0.044,0.075" style="fill:#da2529;fill-rule:nonzero;"/><path d="M459.558,262.7l-14.475,-0c0.013,-0.022 0.031,-0.056 0.044,-0.075c5.909,-0 10.356,0.019 13.672,0.066c0.259,-0 0.509,0.009 0.759,0.009" style="fill:#da2529;fill-rule:nonzero;"/><path d="M71.606,389.813c0,4.3 -1.503,7.704 -4.506,10.213c-3.003,2.506 -7.153,3.759 -12.447,3.759l-14.053,0l0,-28.409l13.9,-0c5.394,-0 9.597,1.203 12.6,3.609c3.003,2.407 4.506,5.916 4.506,10.519l0,0.309Zm17.563,-29.328c-3.869,-3.206 -8.553,-5.65 -14.05,-7.331c-5.497,-1.681 -11.606,-2.519 -18.328,-2.519l-56.791,0l10.972,18.191l-0,88.722l29.628,-0l0,-30.547l14.663,-0c6.618,-0 12.756,-0.813 18.406,-2.444c5.65,-1.628 10.509,-4.072 14.584,-7.331c4.072,-3.259 7.253,-7.278 9.547,-12.066c2.291,-4.784 3.434,-10.334 3.434,-16.647l0,-0.306c0,-5.903 -1.043,-11.2 -3.131,-15.884c-2.084,-4.681 -5.065,-8.628 -8.934,-11.838" style="fill:#da2529;fill-rule:nonzero;"/><path d="M195.979,389.276c0,3.872 -1.375,6.95 -4.125,9.241c-2.75,2.29 -6.668,3.437 -11.759,3.437l-19.55,0l0,-25.659l19.397,-0c4.987,-0 8.909,1.044 11.759,3.131c2.85,2.088 4.278,5.269 4.278,9.544l0,0.306Zm23.825,18.631c3.972,-5.393 5.957,-12.215 5.957,-20.462l-0,-0.306c-0,-10.488 -3.157,-18.788 -9.469,-24.897c-3.566,-3.666 -8.197,-6.516 -13.897,-8.553c-5.703,-2.038 -12.678,-3.053 -20.925,-3.053l-61.528,-0l10.972,18.19l-0,88.722l29.631,0l0,-32.378l12.981,-0l21.538,32.378l34.209,0l-25.503,-37.269c6.719,-2.847 12.066,-6.972 16.034,-12.372" style="fill:#da2529;fill-rule:nonzero;"/><path d="M430.646,389.582l-21.994,-38.947l-33.753,-0l40.628,66.897l-0,40.018l29.781,0l0,-40.478l40.628,-66.437l-33.143,-0l-22.147,38.947Z" style="fill:#da2529;fill-rule:nonzero;"/><path d="M664.861,410.812c-0,7.535 -1.769,13.085 -5.307,16.647c-3.537,3.566 -8.281,5.347 -14.243,5.347c-5.963,0 -10.713,-1.856 -14.247,-5.575c-3.538,-3.715 -5.303,-9.444 -5.303,-17.184l-0,-59.413l-41.213,0l10.972,18.191l0,41.834c0,8.35 1.144,15.603 3.438,21.766c2.29,6.159 5.571,11.25 9.85,15.272c4.278,4.022 9.468,7 15.578,8.934c6.109,1.935 12.984,2.903 20.618,2.903c7.638,0 14.535,-0.968 20.697,-2.903c6.16,-1.934 11.4,-4.912 15.732,-8.934c4.325,-4.022 7.687,-9.163 10.081,-15.428c2.387,-6.26 3.587,-13.719 3.587,-22.372l0,-59.263l-30.24,0l-0,60.178Z" style="fill:#da2529;fill-rule:nonzero;"/><path d="M790.456,389.813c-0,4.3 -1.503,7.704 -4.507,10.213c-3.003,2.506 -7.153,3.759 -12.446,3.759l-14.05,0l-0,-28.409l13.896,-0c5.397,-0 9.597,1.203 12.6,3.609c3.004,2.407 4.507,5.916 4.507,10.519l-0,0.309Zm26.5,-17.49c-2.088,-4.681 -5.066,-8.628 -8.935,-11.838c-3.872,-3.206 -8.553,-5.65 -14.053,-7.331c-5.497,-1.681 -11.606,-2.519 -18.328,-2.519l-56.791,0l10.972,18.191l0,88.722l29.632,-0l-0,-30.547l14.662,-0c6.616,-0 12.753,-0.813 18.403,-2.444c5.65,-1.628 10.513,-4.072 14.585,-7.331c4.071,-3.259 7.256,-7.278 9.546,-12.066c2.291,-4.784 3.438,-10.334 3.438,-16.647l-0,-0.306c-0,-5.903 -1.047,-11.2 -3.131,-15.884" style="fill:#da2529;fill-rule:nonzero;"/><path d="M294.846,349.87l-45.516,107.678l31.159,0l5.11,-12.771l11.334,-29.232l4.444,-11.453l7.519,-18.937l7.425,18.937l0.003,0.006l4.393,11.447l11.225,29.232l5.21,12.771l31.769,0l-45.516,-107.678l-28.559,0Z" style="fill:#da2529;fill-rule:nonzero;"/></svg>