<?xml version="1.0" encoding="UTF-8" standalone="no"?>
<!DOCTYPE svg PUBLIC "-//W3C//DTD SVG 1.1//EN" "http://www.w3.org/Graphics/SVG/1.1/DTD/svg11.dtd">
<svg width="100%" height="100%" viewBox="0 0 210 210" version="1.1" xmlns="http://www.w3.org/2000/svg" xmlns:xlink="http://www.w3.org/1999/xlink" xml:space="preserve" xmlns:serif="http://www.serif.com/" style="fill-rule:evenodd;clip-rule:evenodd;stroke-linejoin:round;stroke-miterlimit:2;">
    <g id="icon" transform="matrix(2.33,0,0,2.33,-1.16667,-1.16667)">
        <g transform="matrix(1,0,0,1,-0.924984,0)">
            <g transform="matrix(1,0,0,1,-21.9745,0.629471)">
                <path d="M45,56.421C42.855,56.421 41.115,54.681 41.115,52.536L41.115,24.012C41.115,21.867 42.855,20.127 45,20.127C47.145,20.127 48.885,21.867 48.885,24.012L48.885,52.536C48.885,54.682 47.145,56.421 45,56.421Z" style="fill-rule:nonzero;"/>
            </g>
            <g transform="matrix(1,0,0,1,-21.9745,0.629471)">
                <path d="M30.327,48.562C29.549,48.562 28.764,48.33 28.081,47.845C26.332,46.603 25.92,44.178 27.162,42.428L41.832,21.763C43.074,20.014 45.498,19.601 47.249,20.844C48.999,22.086 49.41,24.511 48.168,26.261L33.498,46.926C32.741,47.993 31.543,48.562 30.327,48.562Z" style="fill-rule:nonzero;"/>
            </g>
            <g transform="matrix(1,0,0,1,-21.9745,0.629471)">
                <path d="M61.792,90C60.367,90 58.995,89.213 58.314,87.852L41.525,54.274C40.566,52.354 41.343,50.021 43.262,49.061C45.181,48.102 47.515,48.88 48.475,50.799L65.264,84.377C66.223,86.297 65.445,88.63 63.526,89.59C62.969,89.868 62.376,90 61.792,90Z" style="fill-rule:nonzero;"/>
            </g>
            <g transform="matrix(1,0,0,1,-21.9745,0.629471)">
                <circle cx="45.001" cy="8.681" r="8.681"/>
            </g>
            <g transform="matrix(1,0,0,1,-21.9745,0.629471)">
                <path d="M62.838,42.428L52.885,28.407L52.885,41.83L56.502,46.925C57.26,47.992 58.457,48.561 59.674,48.561C60.451,48.561 61.236,48.329 61.919,47.844C63.669,46.603 64.079,44.178 62.838,42.428Z" style="fill-rule:nonzero;"/>
            </g>
            <g transform="matrix(1,0,0,1,-21.9745,0.629471)">
                <path d="M38.656,56.536L24.736,84.376C23.777,86.296 24.554,88.629 26.473,89.589C27.031,89.868 27.624,90 28.208,90C29.633,90 31.005,89.213 31.686,87.852L43,65.224L38.656,56.536Z" style="fill-rule:nonzero;"/>
            </g>
            <g transform="matrix(1,0,0,1,-21.9745,0.629471)">
                <circle cx="36.661" cy="6.681" r="3.341"/>
            </g>
            <g transform="matrix(1,0,0,1,-21.9745,0.629471)">
                <path d="M34.205,6.676L35.018,9.212L35.307,10.123C35.384,10.428 35.484,10.608 35.554,11.236C35.664,12.216 35.5,13.256 35.041,14.166C34.573,15.07 33.834,15.856 32.721,16.216C32.34,15.112 32.131,14.332 31.944,13.622C31.768,12.92 31.644,12.307 31.578,11.66C31.564,11.474 31.484,10.851 31.529,10.336C31.57,9.806 31.694,9.28 31.912,8.797C32.351,7.834 33.097,7.035 34.205,6.676Z" style="fill-rule:nonzero;"/>
            </g>
        </g>
        <g transform="matrix(1,0,0,1,-0.924984,0.128755)">
            <g transform="matrix(1,0,0,1,24.9548,0.500715)">
                <path d="M45,56.421C42.855,56.421 41.115,54.681 41.115,52.536L41.115,24.012C41.115,21.867 42.855,20.127 45,20.127C47.145,20.127 48.885,21.867 48.885,24.012L48.885,52.536C48.885,54.682 47.145,56.421 45,56.421Z" style="fill-rule:nonzero;"/>
            </g>
            <g transform="matrix(1,0,0,1,24.9548,0.500715)">
                <path d="M30.327,48.562C29.549,48.562 28.764,48.33 28.081,47.845C26.332,46.603 25.92,44.178 27.162,42.428L41.832,21.763C43.074,20.014 45.498,19.601 47.249,20.844C48.999,22.086 49.41,24.511 48.168,26.261L33.498,46.926C32.741,47.993 31.543,48.562 30.327,48.562Z" style="fill-rule:nonzero;"/>
            </g>
            <g transform="matrix(1,0,0,1,24.9548,0.500715)">
                <path d="M61.792,90C60.367,90 58.995,89.213 58.314,87.852L41.525,54.274C40.566,52.354 41.343,50.021 43.262,49.061C45.181,48.102 47.515,48.88 48.475,50.799L65.264,84.377C66.223,86.297 65.445,88.63 63.526,89.59C62.969,89.868 62.376,90 61.792,90Z" style="fill-rule:nonzero;"/>
            </g>
            <g transform="matrix(1,0,0,1,24.9548,0.500715)">
                <circle cx="45.001" cy="8.681" r="8.681"/>
            </g>
            <g transform="matrix(1,0,0,1,24.9548,0.500715)">
                <path d="M62.838,42.428L52.885,28.407L52.885,41.83L56.502,46.925C57.26,47.992 58.457,48.561 59.674,48.561C60.451,48.561 61.236,48.329 61.919,47.844C63.669,46.603 64.079,44.178 62.838,42.428Z" style="fill-rule:nonzero;"/>
            </g>
            <g transform="matrix(1,0,0,1,24.9548,0.500715)">
                <path d="M38.656,56.536L24.736,84.376C23.777,86.296 24.554,88.629 26.473,89.589C27.031,89.868 27.624,90 28.208,90C29.633,90 31.005,89.213 31.686,87.852L43,65.224L38.656,56.536Z" style="fill-rule:nonzero;"/>
            </g>
        </g>
    </g>
</svg>
