<?xml version="1.0" encoding="UTF-8" standalone="no"?>
<!DOCTYPE svg PUBLIC "-//W3C//DTD SVG 1.1//EN" "http://www.w3.org/Graphics/SVG/1.1/DTD/svg11.dtd">
<svg width="100%" height="100%" viewBox="0 0 400 200" version="1.1" xmlns="http://www.w3.org/2000/svg" xmlns:xlink="http://www.w3.org/1999/xlink" xml:space="preserve" xmlns:serif="http://www.serif.com/" style="fill-rule:evenodd;clip-rule:evenodd;stroke-linejoin:round;stroke-miterlimit:2;">
    <g id="icon" transform="matrix(2.21905,0,0,2.21905,-1.11111,-1.11111)">
        <g transform="matrix(1,0,0,1,-1.84996,0)">
            <g transform="matrix(1,0,0,1,-21.9745,0.629471)">
                <path d="M45,56.421C42.855,56.421 41.115,54.681 41.115,52.536L41.115,24.012C41.115,21.867 42.855,20.127 45,20.127C47.145,20.127 48.885,21.867 48.885,24.012L48.885,52.536C48.885,54.682 47.145,56.421 45,56.421Z" style="fill-rule:nonzero;"/>
            </g>
            <g transform="matrix(1,0,0,1,-21.9745,0.629471)">
                <path d="M30.327,48.562C29.549,48.562 28.764,48.33 28.081,47.845C26.332,46.603 25.92,44.178 27.162,42.428L41.832,21.763C43.074,20.014 45.498,19.601 47.249,20.844C48.999,22.086 49.41,24.511 48.168,26.261L33.498,46.926C32.741,47.993 31.543,48.562 30.327,48.562Z" style="fill-rule:nonzero;"/>
            </g>
            <g transform="matrix(1,0,0,1,-21.9745,0.629471)">
                <path d="M61.792,90C60.367,90 58.995,89.213 58.314,87.852L41.525,54.274C40.566,52.354 41.343,50.021 43.262,49.061C45.181,48.102 47.515,48.88 48.475,50.799L65.264,84.377C66.223,86.297 65.445,88.63 63.526,89.59C62.969,89.868 62.376,90 61.792,90Z" style="fill-rule:nonzero;"/>
            </g>
            <g transform="matrix(1,0,0,1,-21.9745,0.629471)">
                <circle cx="45.001" cy="8.681" r="8.681"/>
            </g>
            <g transform="matrix(1,0,0,1,-21.9745,0.629471)">
                <path d="M62.838,42.428L52.885,28.407L52.885,41.83L56.502,46.925C57.26,47.992 58.457,48.561 59.674,48.561C60.451,48.561 61.236,48.329 61.919,47.844C63.669,46.603 64.079,44.178 62.838,42.428Z" style="fill-rule:nonzero;"/>
            </g>
            <g transform="matrix(1,0,0,1,-21.9745,0.629471)">
                <path d="M38.656,56.536L24.736,84.376C23.777,86.296 24.554,88.629 26.473,89.589C27.031,89.868 27.624,90 28.208,90C29.633,90 31.005,89.213 31.686,87.852L43,65.224L38.656,56.536Z" style="fill-rule:nonzero;"/>
            </g>
            <g transform="matrix(1,0,0,1,-21.9745,0.629471)">
                <circle cx="36.661" cy="6.681" r="3.341"/>
            </g>
            <g transform="matrix(1,0,0,1,-21.9745,0.629471)">
                <path d="M34.205,6.676L35.018,9.212L35.307,10.123C35.384,10.428 35.484,10.608 35.554,11.236C35.664,12.216 35.5,13.256 35.041,14.166C34.573,15.07 33.834,15.856 32.721,16.216C32.34,15.112 32.131,14.332 31.944,13.622C31.768,12.92 31.644,12.307 31.578,11.66C31.564,11.474 31.484,10.851 31.529,10.336C31.57,9.806 31.694,9.28 31.912,8.797C32.351,7.834 33.097,7.035 34.205,6.676Z" style="fill-rule:nonzero;"/>
            </g>
        </g>
        <g transform="matrix(1,0,0,1,-1.84996,0.128755)">
            <g transform="matrix(1,0,0,1,24.9548,0.500715)">
                <path d="M45,56.421C42.855,56.421 41.115,54.681 41.115,52.536L41.115,24.012C41.115,21.867 42.855,20.127 45,20.127C47.145,20.127 48.885,21.867 48.885,24.012L48.885,52.536C48.885,54.682 47.145,56.421 45,56.421Z" style="fill-rule:nonzero;"/>
            </g>
            <g transform="matrix(1,0,0,1,24.9548,0.500715)">
                <path d="M30.327,48.562C29.549,48.562 28.764,48.33 28.081,47.845C26.332,46.603 25.92,44.178 27.162,42.428L41.832,21.763C43.074,20.014 45.498,19.601 47.249,20.844C48.999,22.086 49.41,24.511 48.168,26.261L33.498,46.926C32.741,47.993 31.543,48.562 30.327,48.562Z" style="fill-rule:nonzero;"/>
            </g>
            <g transform="matrix(1,0,0,1,24.9548,0.500715)">
                <path d="M61.792,90C60.367,90 58.995,89.213 58.314,87.852L41.525,54.274C40.566,52.354 41.343,50.021 43.262,49.061C45.181,48.102 47.515,48.88 48.475,50.799L65.264,84.377C66.223,86.297 65.445,88.63 63.526,89.59C62.969,89.868 62.376,90 61.792,90Z" style="fill-rule:nonzero;"/>
            </g>
            <g transform="matrix(1,0,0,1,24.9548,0.500715)">
                <circle cx="45.001" cy="8.681" r="8.681"/>
            </g>
            <g transform="matrix(1,0,0,1,24.9548,0.500715)">
                <path d="M62.838,42.428L52.885,28.407L52.885,41.83L56.502,46.925C57.26,47.992 58.457,48.561 59.674,48.561C60.451,48.561 61.236,48.329 61.919,47.844C63.669,46.603 64.079,44.178 62.838,42.428Z" style="fill-rule:nonzero;"/>
            </g>
            <g transform="matrix(1,0,0,1,24.9548,0.500715)">
                <path d="M38.656,56.536L24.736,84.376C23.777,86.296 24.554,88.629 26.473,89.589C27.031,89.868 27.624,90 28.208,90C29.633,90 31.005,89.213 31.686,87.852L43,65.224L38.656,56.536Z" style="fill-rule:nonzero;"/>
            </g>
        </g>
        <g id="Layer1" transform="matrix(0.176033,0,0,0.176033,92.6255,0.500642)">
            <g>
                <g transform="matrix(1.23777,0,0,1.0915,-60.4687,1.81294)">
                    <path d="M384.32,326.74C384.32,323.769 382.193,321.358 379.574,321.358L132.238,321.358C129.619,321.358 127.492,323.769 127.492,326.74L127.492,373.613C127.492,376.583 129.619,378.995 132.238,378.995L379.574,378.995C382.193,378.995 384.32,376.583 384.32,373.613L384.32,326.74Z"/>
                </g>
                <g transform="matrix(1.1694,0,0,1.17805,-48.0579,-19.7062)">
                    <path d="M177.273,170.999L223.122,303.376L190.64,303.376L177.273,170.999Z"/>
                </g>
                <g transform="matrix(-1.1694,0,0,1.17805,561.122,-19.6085)">
                    <path d="M177.273,170.999L223.122,303.376L190.64,303.376L177.273,170.999Z"/>
                </g>
                <g transform="matrix(1.1694,0,0,1.1694,-48.0579,-17.0802)">
                    <path d="M261.425,169.503L277.274,302.961L245.575,302.961L261.425,169.503Z"/>
                </g>
                <g transform="matrix(1.1694,0,0,1.1694,-48.0579,-17.0802)">
                    <path d="M165.729,152.22L165.434,160.091C172.882,165.588 179.075,164.166 184.266,157.212L182.744,152.22L252.257,152.22L252.202,157.655C258.203,162.158 264.205,162.498 270.207,158.264L269.843,152.22L339.436,152.22L337.117,156.542C342.056,164.248 348.107,166.01 355.469,160.766L355.961,152.22L383.405,152.22L383.405,303.076L396.575,303.076L396.575,96.545L124.495,96.545L124.495,303.076L137.221,303.076L137.221,152.22L165.729,152.22ZM160.915,139.398L186.642,139.398L173.778,131.858L160.915,139.398ZM247.567,139.398L273.294,139.398L260.431,131.858L247.567,139.398ZM334.141,139.398L359.867,139.398L347.004,131.858L334.141,139.398ZM186.653,124.31L211.084,138.822L211.084,109.988L186.653,124.31ZM310.4,138.413L334.136,124.314L310.4,110.399L310.4,138.413ZM223.848,138.4L247.563,124.314L223.848,110.412L223.848,138.4ZM137.221,138.385L160.91,124.314L137.221,110.427L137.221,138.385ZM273.306,124.31L296.925,138.339L296.925,110.464L273.306,124.31ZM359.879,124.31L383.405,138.284L383.405,110.519L359.879,124.31ZM248.348,109.485L260.438,116.666L272.528,109.485L248.348,109.485ZM161.695,109.485L173.785,116.666L185.875,109.485L161.695,109.485ZM334.921,109.485L347.011,116.666L359.101,109.485L334.921,109.485Z"/>
                </g>
                <g transform="matrix(1.1694,0,0,1.1694,-48.0579,-17.0802)">
                    <path d="M112.97,249.979C112.97,246.875 110.45,244.355 107.347,244.355L56.416,244.355C53.313,244.355 50.793,246.875 50.793,249.979L50.793,364.875C50.793,367.979 53.313,370.499 56.416,370.499L107.347,370.499C110.45,370.499 112.97,367.979 112.97,364.875L112.97,249.979ZM81.798,307.418C95.896,307.418 107.342,318.864 107.342,332.962C107.342,347.06 95.896,358.506 81.798,358.506C67.7,358.506 56.255,347.06 56.255,332.962C56.255,318.864 67.7,307.418 81.798,307.418ZM81.628,256.99C92.945,256.99 102.133,266.178 102.133,277.495C102.133,288.812 92.945,298 81.628,298C70.311,298 61.123,288.812 61.123,277.495C61.123,266.178 70.311,256.99 81.628,256.99Z"/>
                </g>
                <g transform="matrix(1.1694,0,0,1.1694,368.554,-17.0802)">
                    <path d="M112.97,249.979C112.97,246.875 110.45,244.355 107.347,244.355L56.416,244.355C53.313,244.355 50.793,246.875 50.793,249.979L50.793,364.875C50.793,367.979 53.313,370.499 56.416,370.499L107.347,370.499C110.45,370.499 112.97,367.979 112.97,364.875L112.97,249.979ZM81.798,307.418C95.896,307.418 107.342,318.864 107.342,332.962C107.342,347.06 95.896,358.506 81.798,358.506C67.7,358.506 56.255,347.06 56.255,332.962C56.255,318.864 67.7,307.418 81.798,307.418ZM81.628,256.99C92.945,256.99 102.133,266.178 102.133,277.495C102.133,288.812 92.945,298 81.628,298C70.311,298 61.123,288.812 61.123,277.495C61.123,266.178 70.311,256.99 81.628,256.99Z"/>
                </g>
            </g>
        </g>
    </g>
</svg>
