<?xml version="1.0" encoding="UTF-8" standalone="no"?><!DOCTYPE svg PUBLIC "-//W3C//DTD SVG 1.1//EN" "http://www.w3.org/Graphics/SVG/1.1/DTD/svg11.dtd"><svg width="100%" height="100%" viewBox="0 0 104 44" version="1.1" xmlns="http://www.w3.org/2000/svg" xmlns:xlink="http://www.w3.org/1999/xlink" xml:space="preserve" xmlns:serif="http://www.serif.com/" style="fill-rule:evenodd;clip-rule:evenodd;stroke-linecap:round;stroke-linejoin:round;stroke-miterlimit:1.5;"><path d="M31.157,32.281l43.961,-0" style="fill:none;stroke:#000;stroke-width:3.4px;"/><g><circle cx="21.025" cy="32.06" r="9.81" style="fill:none;stroke:#000;stroke-width:3.4px;"/><circle cx="21.025" cy="32.06" r="3.712" style="fill:none;stroke:#000;stroke-width:3.4px;"/></g><g><circle cx="85.503" cy="32.06" r="9.81" style="fill:none;stroke:#000;stroke-width:3.4px;"/><circle cx="85.503" cy="32.06" r="3.712" style="fill:none;stroke:#000;stroke-width:3.4px;"/></g><path d="M101.76,20.901l-4.928,-0l-3.959,-6.679" style="fill:none;stroke:#000;stroke-width:3.4px;"/><path d="M44.613,16.702l2.403,0" style="fill:none;stroke:#000;stroke-width:3.4px;"/><path d="M35.415,11.199l40.303,-0" style="fill:none;stroke:#000;stroke-width:3.4px;"/><path d="M41.497,24.764l-10.6,-21.123" style="fill:none;stroke:#000;stroke-width:3.4px;"/><path d="M95.703,32.266l3.094,0c0.898,0 1.759,-0.357 2.394,-0.991c0.635,-0.635 0.991,-1.496 0.991,-2.394c0,-3.554 0,-8.632 0,-8.632c-4.952,-5.978 -14.311,-8.923 -26.441,-9.05c-15.274,-13.322 -41.456,-11.684 -63.129,-0.963c-0,-0 -2.569,-0.008 -5.204,-0.016c-3.107,-0.009 -5.636,2.499 -5.651,5.606c-0.025,4.957 -0.057,11.395 -0.057,11.395l4.854,5.045l3.693,0" style="fill:none;stroke:#000;stroke-width:3.4px;stroke-linecap:butt;"/><g><path d="M59.017,27.633c-0.156,0.265 -0.21,1.193 -0.226,2.044c-0.2,0.018 -0.402,0.027 -0.607,0.027c-0.204,-0 -0.407,-0.009 -0.607,-0.027c-0.016,-0.851 -0.07,-1.779 -0.226,-2.044l-1.018,0l0.006,-0.005c0.787,-0.718 1.455,-1.461 1.836,-2.263c0.003,-0.006 0.006,-0.01 0.008,-0.016l0.002,-0c0.003,0.006 0.006,0.013 0.009,0.019c0.382,0.802 1.052,1.546 1.841,2.265l-1.018,0Zm0.496,-12.93c0.029,0.131 0.047,0.287 0.047,0.473c0,0.148 -0.026,0.293 -0.076,0.428c3.301,0.612 5.81,3.514 5.81,6.99c-0,1.379 -0.395,2.668 -1.078,3.759c-1.013,-0.551 -1.61,0.017 -2.096,0.376c-0.001,0.001 -0.002,0.001 -0.003,0.003c-0.098,-0.196 -0.504,-0.44 -1.19,-1.188c-0.292,-0.932 -0.594,-1.861 -0.864,-2.8c-0.576,-1.652 -0.524,-3.439 -1.093,-5.095c-0.329,-1.212 -0.786,-0.211 -0.666,0.469c0.117,0.979 0.093,2.025 0.162,3.004c0.932,-0.295 0.979,0.811 1.026,1.424c0.035,0.397 0.024,0.72 0.228,1.053c0.237,0.521 0.471,1.249 0.229,1.789c0.014,-0.68 -0.157,-1.301 -0.527,-1.868c-0.288,-0.436 -0.036,-1.015 -0.17,-1.505c-0.117,-0.43 -0.47,-1.098 -0.824,-0.535c-0.185,0.412 -0.156,0.894 -0.072,1.322c0.134,0.517 -0.078,1.175 -0.171,1.783c-0.093,-0.608 -0.305,-1.266 -0.171,-1.783c0.083,-0.428 0.112,-0.91 -0.072,-1.322c-0.354,-0.563 -0.707,0.105 -0.824,0.535c-0.135,0.49 0.118,1.069 -0.17,1.505c-0.37,0.567 -0.541,1.188 -0.528,1.868c-0.242,-0.54 -0.007,-1.268 0.23,-1.789c0.203,-0.333 0.193,-0.656 0.228,-1.053c0.047,-0.613 0.094,-1.719 1.025,-1.424c0.069,-0.979 0.045,-2.025 0.164,-3.004c0.119,-0.68 -0.338,-1.681 -0.667,-0.469c-0.569,1.656 -0.518,3.443 -1.093,5.095c-0.27,0.939 -0.573,1.868 -0.864,2.8c-0.687,0.749 -1.094,0.992 -1.191,1.188c-0.001,-0.001 -0.003,-0.002 -0.004,-0.003c-0.486,-0.359 -1.083,-0.927 -2.096,-0.376c-0.683,-1.091 -1.078,-2.38 -1.078,-3.759c0,-3.437 2.452,-6.312 5.698,-6.969c-0.08,-0.171 -0.125,-0.356 -0.125,-0.544c0,-0.114 0.011,-0.23 0.033,-0.347c-3.696,0.705 -6.498,3.961 -6.498,7.86c-0,1.577 0.458,3.049 1.249,4.289c1.32,2.071 3.566,3.497 6.15,3.69c0.199,0.016 0.401,0.023 0.603,0.023c0.203,-0 0.404,-0.007 0.602,-0.022c2.585,-0.194 4.831,-1.62 6.151,-3.691c0.791,-1.24 1.249,-2.712 1.249,-4.289c0,-3.96 -2.891,-7.257 -6.673,-7.891" style="fill:#da2529;fill-rule:nonzero;"/><path d="M59.254,15.176c-0.024,0.525 -0.454,0.967 -0.959,1.041c-0.377,0.065 -0.761,-0.113 -1.016,-0.387c-0.056,-0.059 -0.106,-0.124 -0.151,-0.192c0,0 0,-0 -0,-0.001c-0.082,-0.127 -0.142,-0.271 -0.164,-0.421c-0.033,-0.232 0.015,-0.47 0.089,-0.691c0.067,-0.175 0.165,-0.364 0.068,-0.538c0.15,0.097 0.252,0.262 0.27,0.44c0.008,0.066 0.005,0.138 -0.005,0.195c-0.001,0.007 -0.002,0.015 -0.004,0.021c-0.001,0.004 -0.001,0.006 -0.002,0.008l-0,0.002c0.006,-0.006 0.012,-0.012 0.016,-0.018c0.021,-0.024 0.037,-0.05 0.052,-0.078l-0,-0c0.012,-0.024 0.022,-0.049 0.029,-0.074c0.017,-0.062 0.017,-0.128 0.008,-0.192c-0.143,-1.035 0.372,-1.423 0.74,-1.578c-0.397,0.708 0.179,1.416 0.179,1.416c-0.011,-0.566 0.32,-0.736 0.32,-0.736c-0.121,0.896 0.566,0.995 0.53,1.783" style="fill:#da2529;fill-rule:nonzero;"/></g></svg>